<svg width="584" height="713" viewBox="0 0 584 713" fill="none" xmlns="http://www.w3.org/2000/svg">
<g clip-path="url(#clip0)">
<circle cx="338.5" cy="263.5" r="66.5" fill="#474B53" stroke="#808080" stroke-width="4"/>
<circle cx="310.5" cy="263.5" r="6.5" fill="#808080"/>
<circle cx="338.5" cy="263.5" r="6.5" fill="#808080"/>
<circle cx="366.5" cy="263.5" r="6.5" fill="#808080"/>
<path d="M393.433 326.57L375.439 320.307L389.861 307.856L393.433 326.57Z" fill="#474B53" stroke="#808080" stroke-width="4" stroke-linecap="round"/>
<path d="M371.306 315.157L385.752 302.734L389.288 321.455L371.306 315.157Z" fill="#474B53" stroke="#474B53" stroke-width="4" stroke-linecap="round"/>
<circle cx="244.5" cy="224.5" r="66.5" fill="#474B53" stroke="#808080" stroke-width="4"/>
<circle cx="213.5" cy="218.5" r="6.5" fill="#808080"/>
<circle cx="273.5" cy="218.5" r="6.5" fill="#808080"/>
<path d="M228 242.5C240.108 233.482 246.891 233.626 259 242.5" stroke="#808080" stroke-width="7" stroke-linecap="round" stroke-linejoin="round"/>
<path d="M190.317 289.812L193.589 271.042L208.208 283.26L190.317 289.812Z" fill="#474B53" stroke="#808080" stroke-width="4" stroke-linecap="round"/>
<path d="M195.189 284.684L198.461 265.914L213.08 278.132L195.189 284.684Z" fill="#474B53" stroke="#474B53" stroke-width="4" stroke-linecap="round"/>
<path d="M121.091 562.204V578H119.903C119.72 578 119.566 577.967 119.441 577.901C119.324 577.835 119.203 577.729 119.078 577.582L110.157 566.043C110.172 566.241 110.183 566.435 110.19 566.626C110.205 566.817 110.212 566.996 110.212 567.165V578H108.155V562.204H109.365C109.57 562.204 109.724 562.23 109.827 562.281C109.93 562.325 110.043 562.431 110.168 562.6L119.111 574.15C119.089 573.937 119.071 573.732 119.056 573.534C119.049 573.329 119.045 573.138 119.045 572.962V562.204H121.091ZM128.978 566.648C129.799 566.648 130.54 566.784 131.2 567.055C131.867 567.319 132.432 567.704 132.894 568.21C133.363 568.709 133.723 569.314 133.972 570.025C134.221 570.729 134.346 571.521 134.346 572.401C134.346 573.281 134.221 574.077 133.972 574.788C133.723 575.499 133.363 576.104 132.894 576.603C132.432 577.102 131.867 577.487 131.2 577.758C130.54 578.022 129.799 578.154 128.978 578.154C128.149 578.154 127.401 578.022 126.734 577.758C126.074 577.487 125.509 577.102 125.04 576.603C124.571 576.104 124.208 575.499 123.951 574.788C123.702 574.077 123.577 573.281 123.577 572.401C123.577 571.521 123.702 570.729 123.951 570.025C124.208 569.314 124.571 568.709 125.04 568.21C125.509 567.704 126.074 567.319 126.734 567.055C127.401 566.784 128.149 566.648 128.978 566.648ZM128.978 576.482C130.034 576.482 130.822 576.126 131.343 575.415C131.864 574.704 132.124 573.703 132.124 572.412C132.124 571.121 131.864 570.12 131.343 569.409C130.822 568.69 130.034 568.331 128.978 568.331C127.907 568.331 127.108 568.69 126.58 569.409C126.059 570.12 125.799 571.121 125.799 572.412C125.799 573.703 126.059 574.704 126.58 575.415C127.108 576.126 127.907 576.482 128.978 576.482ZM142.305 578V566.824H143.592C143.893 566.824 144.08 566.967 144.153 567.253L144.307 568.32C144.718 567.829 145.172 567.429 145.671 567.121C146.177 566.806 146.767 566.648 147.442 566.648C148.183 566.648 148.784 566.853 149.246 567.264C149.708 567.667 150.045 568.217 150.258 568.914C150.419 568.518 150.628 568.177 150.885 567.891C151.142 567.605 151.428 567.37 151.743 567.187C152.058 567.004 152.392 566.868 152.744 566.78C153.103 566.692 153.466 566.648 153.833 566.648C154.427 566.648 154.955 566.743 155.417 566.934C155.886 567.117 156.282 567.389 156.605 567.748C156.928 568.107 157.173 568.551 157.342 569.079C157.511 569.607 157.595 570.208 157.595 570.883V578H155.439V570.883C155.439 570.047 155.256 569.416 154.889 568.991C154.53 568.566 154.002 568.353 153.305 568.353C152.997 568.353 152.704 568.408 152.425 568.518C152.146 568.621 151.901 568.778 151.688 568.991C151.483 569.204 151.318 569.468 151.193 569.783C151.076 570.098 151.017 570.465 151.017 570.883V578H148.861V570.883C148.861 570.018 148.689 569.38 148.344 568.969C147.999 568.558 147.493 568.353 146.826 568.353C146.364 568.353 145.935 568.474 145.539 568.716C145.143 568.958 144.78 569.288 144.45 569.706V578H142.305ZM167.884 571.169C167.884 570.744 167.821 570.351 167.697 569.992C167.579 569.633 167.403 569.321 167.169 569.057C166.934 568.793 166.648 568.588 166.311 568.441C165.973 568.294 165.585 568.221 165.145 568.221C164.243 568.221 163.531 568.481 163.011 569.002C162.497 569.523 162.171 570.245 162.032 571.169H167.884ZM169.655 576.405C169.391 576.713 169.086 576.981 168.742 577.208C168.397 577.428 168.03 577.608 167.642 577.747C167.253 577.886 166.85 577.989 166.432 578.055C166.021 578.121 165.614 578.154 165.211 578.154C164.441 578.154 163.726 578.026 163.066 577.769C162.413 577.505 161.845 577.124 161.361 576.625C160.884 576.119 160.51 575.496 160.239 574.755C159.975 574.007 159.843 573.149 159.843 572.181C159.843 571.404 159.964 570.681 160.206 570.014C160.448 569.339 160.792 568.753 161.24 568.254C161.694 567.755 162.248 567.363 162.901 567.077C163.553 566.791 164.287 566.648 165.101 566.648C165.783 566.648 166.41 566.762 166.982 566.989C167.561 567.209 168.06 567.532 168.478 567.957C168.896 568.382 169.222 568.907 169.457 569.53C169.699 570.153 169.82 570.865 169.82 571.664C169.82 571.994 169.783 572.218 169.71 572.335C169.636 572.445 169.501 572.5 169.303 572.5H161.977C161.999 573.167 162.094 573.75 162.263 574.249C162.431 574.74 162.662 575.151 162.956 575.481C163.256 575.811 163.612 576.057 164.023 576.218C164.433 576.379 164.892 576.46 165.398 576.46C165.874 576.46 166.285 576.405 166.63 576.295C166.982 576.185 167.282 576.068 167.532 575.943C167.788 575.811 168.001 575.69 168.17 575.58C168.346 575.47 168.5 575.415 168.632 575.415C168.808 575.415 168.943 575.481 169.039 575.613L169.655 576.405ZM178.714 568.749C178.655 568.844 178.593 568.914 178.527 568.958C178.461 568.995 178.377 569.013 178.274 569.013C178.157 569.013 178.025 568.973 177.878 568.892C177.739 568.811 177.566 568.723 177.361 568.628C177.163 568.533 176.928 568.445 176.657 568.364C176.386 568.283 176.063 568.243 175.689 568.243C175.381 568.243 175.099 568.283 174.842 568.364C174.593 568.437 174.38 568.544 174.204 568.683C174.028 568.815 173.892 568.976 173.797 569.167C173.702 569.35 173.654 569.548 173.654 569.761C173.654 570.04 173.735 570.271 173.896 570.454C174.065 570.637 174.281 570.795 174.545 570.927C174.816 571.059 175.121 571.18 175.458 571.29C175.803 571.393 176.151 571.503 176.503 571.62C176.862 571.737 177.211 571.873 177.548 572.027C177.893 572.174 178.197 572.361 178.461 572.588C178.732 572.808 178.949 573.076 179.11 573.391C179.279 573.706 179.363 574.091 179.363 574.546C179.363 575.067 179.268 575.551 179.077 575.998C178.894 576.438 178.619 576.819 178.252 577.142C177.893 577.465 177.445 577.718 176.91 577.901C176.375 578.084 175.762 578.176 175.073 578.176C174.303 578.176 173.592 578.048 172.939 577.791C172.286 577.534 171.74 577.208 171.3 576.812L171.806 575.987C171.865 575.884 171.938 575.807 172.026 575.756C172.114 575.697 172.231 575.668 172.378 575.668C172.517 575.668 172.66 575.719 172.807 575.822C172.954 575.925 173.13 576.038 173.335 576.163C173.54 576.28 173.79 576.39 174.083 576.493C174.376 576.588 174.743 576.636 175.183 576.636C175.55 576.636 175.869 576.592 176.14 576.504C176.411 576.409 176.635 576.284 176.811 576.13C176.994 575.969 177.13 575.785 177.218 575.58C177.306 575.375 177.35 575.158 177.35 574.931C177.35 574.638 177.266 574.396 177.097 574.205C176.936 574.007 176.719 573.838 176.448 573.699C176.184 573.56 175.88 573.439 175.535 573.336C175.19 573.233 174.838 573.123 174.479 573.006C174.12 572.889 173.768 572.753 173.423 572.599C173.078 572.445 172.77 572.251 172.499 572.016C172.235 571.781 172.019 571.495 171.85 571.158C171.689 570.821 171.608 570.41 171.608 569.926C171.608 569.493 171.696 569.079 171.872 568.683C172.055 568.287 172.316 567.939 172.653 567.638C172.998 567.337 173.419 567.099 173.918 566.923C174.424 566.74 175 566.648 175.645 566.648C176.386 566.648 177.053 566.765 177.647 567C178.248 567.235 178.762 567.557 179.187 567.968L178.714 568.749ZM188.275 568.749C188.216 568.844 188.154 568.914 188.088 568.958C188.022 568.995 187.937 569.013 187.835 569.013C187.717 569.013 187.585 568.973 187.439 568.892C187.299 568.811 187.127 568.723 186.922 568.628C186.724 568.533 186.489 568.445 186.218 568.364C185.946 568.283 185.624 568.243 185.25 568.243C184.942 568.243 184.659 568.283 184.403 568.364C184.153 568.437 183.941 568.544 183.765 568.683C183.589 568.815 183.453 568.976 183.358 569.167C183.262 569.35 183.215 569.548 183.215 569.761C183.215 570.04 183.295 570.271 183.457 570.454C183.625 570.637 183.842 570.795 184.106 570.927C184.377 571.059 184.681 571.18 185.019 571.29C185.363 571.393 185.712 571.503 186.064 571.62C186.423 571.737 186.771 571.873 187.109 572.027C187.453 572.174 187.758 572.361 188.022 572.588C188.293 572.808 188.509 573.076 188.671 573.391C188.839 573.706 188.924 574.091 188.924 574.546C188.924 575.067 188.828 575.551 188.638 575.998C188.454 576.438 188.179 576.819 187.813 577.142C187.453 577.465 187.006 577.718 186.471 577.901C185.935 578.084 185.323 578.176 184.634 578.176C183.864 578.176 183.152 578.048 182.5 577.791C181.847 577.534 181.301 577.208 180.861 576.812L181.367 575.987C181.425 575.884 181.499 575.807 181.587 575.756C181.675 575.697 181.792 575.668 181.939 575.668C182.078 575.668 182.221 575.719 182.368 575.822C182.514 575.925 182.69 576.038 182.896 576.163C183.101 576.28 183.35 576.39 183.644 576.493C183.937 576.588 184.304 576.636 184.744 576.636C185.11 576.636 185.429 576.592 185.701 576.504C185.972 576.409 186.196 576.284 186.372 576.13C186.555 575.969 186.691 575.785 186.779 575.58C186.867 575.375 186.911 575.158 186.911 574.931C186.911 574.638 186.826 574.396 186.658 574.205C186.496 574.007 186.28 573.838 186.009 573.699C185.745 573.56 185.44 573.439 185.096 573.336C184.751 573.233 184.399 573.123 184.04 573.006C183.68 572.889 183.328 572.753 182.984 572.599C182.639 572.445 182.331 572.251 182.06 572.016C181.796 571.781 181.579 571.495 181.411 571.158C181.249 570.821 181.169 570.41 181.169 569.926C181.169 569.493 181.257 569.079 181.433 568.683C181.616 568.287 181.876 567.939 182.214 567.638C182.558 567.337 182.98 567.099 183.479 566.923C183.985 566.74 184.56 566.648 185.206 566.648C185.946 566.648 186.614 566.765 187.208 567C187.809 567.235 188.322 567.557 188.748 567.968L188.275 568.749ZM197.252 573.039C196.38 573.068 195.639 573.138 195.03 573.248C194.422 573.351 193.927 573.49 193.545 573.666C193.164 573.842 192.889 574.051 192.72 574.293C192.552 574.528 192.467 574.792 192.467 575.085C192.467 575.364 192.511 575.606 192.599 575.811C192.695 576.009 192.819 576.174 192.973 576.306C193.135 576.431 193.322 576.522 193.534 576.581C193.747 576.64 193.978 576.669 194.227 576.669C194.557 576.669 194.858 576.636 195.129 576.57C195.408 576.504 195.668 576.412 195.91 576.295C196.152 576.17 196.383 576.02 196.603 575.844C196.823 575.668 197.04 575.466 197.252 575.239V573.039ZM190.96 568.386C191.584 567.792 192.258 567.348 192.984 567.055C193.718 566.762 194.521 566.615 195.393 566.615C196.031 566.615 196.596 566.721 197.087 566.934C197.579 567.139 197.993 567.429 198.33 567.803C198.668 568.177 198.921 568.624 199.089 569.145C199.265 569.666 199.353 570.241 199.353 570.872V578H198.396C198.184 578 198.022 577.967 197.912 577.901C197.802 577.828 197.714 577.696 197.648 577.505L197.417 576.526C197.131 576.79 196.849 577.025 196.57 577.23C196.292 577.428 195.998 577.6 195.69 577.747C195.39 577.886 195.067 577.993 194.722 578.066C194.378 578.139 193.996 578.176 193.578 578.176C193.138 578.176 192.724 578.117 192.335 578C191.954 577.875 191.62 577.688 191.334 577.439C191.048 577.19 190.821 576.878 190.652 576.504C190.491 576.13 190.41 575.694 190.41 575.195C190.41 574.755 190.528 574.333 190.762 573.93C191.004 573.519 191.393 573.153 191.928 572.83C192.471 572.507 193.175 572.243 194.04 572.038C194.913 571.833 195.984 571.715 197.252 571.686V570.872C197.252 570.029 197.073 569.398 196.713 568.98C196.354 568.562 195.826 568.353 195.129 568.353C194.66 568.353 194.264 568.412 193.941 568.529C193.626 568.646 193.351 568.778 193.116 568.925C192.889 569.064 192.687 569.193 192.511 569.31C192.343 569.427 192.167 569.486 191.983 569.486C191.837 569.486 191.708 569.446 191.598 569.365C191.496 569.284 191.411 569.189 191.345 569.079L190.96 568.386ZM206.152 572.423C206.533 572.423 206.867 572.372 207.153 572.269C207.446 572.166 207.688 572.023 207.879 571.84C208.077 571.649 208.223 571.422 208.319 571.158C208.421 570.894 208.473 570.604 208.473 570.289C208.473 569.644 208.275 569.13 207.879 568.749C207.49 568.36 206.914 568.166 206.152 568.166C205.396 568.166 204.821 568.36 204.425 568.749C204.036 569.13 203.842 569.644 203.842 570.289C203.842 570.604 203.889 570.894 203.985 571.158C204.087 571.415 204.234 571.638 204.425 571.829C204.623 572.012 204.865 572.159 205.151 572.269C205.444 572.372 205.778 572.423 206.152 572.423ZM209.573 578.583C209.573 578.319 209.499 578.11 209.353 577.956C209.206 577.795 209.004 577.67 208.748 577.582C208.498 577.487 208.205 577.421 207.868 577.384C207.53 577.34 207.175 577.307 206.801 577.285C206.434 577.263 206.056 577.245 205.668 577.23C205.279 577.208 204.905 577.171 204.546 577.12C204.164 577.311 203.849 577.542 203.6 577.813C203.358 578.084 203.237 578.403 203.237 578.77C203.237 579.005 203.295 579.225 203.413 579.43C203.537 579.635 203.724 579.811 203.974 579.958C204.23 580.112 204.549 580.229 204.931 580.31C205.319 580.398 205.781 580.442 206.317 580.442C206.845 580.442 207.31 580.394 207.714 580.299C208.117 580.211 208.454 580.083 208.726 579.914C209.004 579.753 209.213 579.558 209.353 579.331C209.499 579.104 209.573 578.854 209.573 578.583ZM211.751 567.242V568.045C211.751 568.309 211.586 568.474 211.256 568.54L210.057 568.716C210.159 568.943 210.24 569.185 210.299 569.442C210.357 569.691 210.387 569.955 210.387 570.234C210.387 570.784 210.28 571.283 210.068 571.73C209.855 572.17 209.562 572.548 209.188 572.863C208.814 573.178 208.366 573.42 207.846 573.589C207.332 573.758 206.768 573.842 206.152 573.842C205.646 573.842 205.173 573.787 204.733 573.677C204.513 573.809 204.344 573.956 204.227 574.117C204.117 574.271 204.062 574.425 204.062 574.579C204.062 574.836 204.168 575.026 204.381 575.151C204.601 575.276 204.883 575.367 205.228 575.426C205.58 575.477 205.979 575.51 206.427 575.525C206.881 575.54 207.34 575.565 207.802 575.602C208.271 575.631 208.729 575.69 209.177 575.778C209.631 575.859 210.031 575.994 210.376 576.185C210.728 576.368 211.01 576.625 211.223 576.955C211.443 577.278 211.553 577.699 211.553 578.22C211.553 578.704 211.432 579.173 211.19 579.628C210.955 580.083 210.61 580.486 210.156 580.838C209.701 581.19 209.147 581.472 208.495 581.685C207.842 581.898 207.101 582.004 206.273 582.004C205.444 582.004 204.722 581.923 204.106 581.762C203.497 581.601 202.987 581.384 202.577 581.113C202.173 580.842 201.869 580.526 201.664 580.167C201.466 579.808 201.367 579.434 201.367 579.045C201.367 578.502 201.535 578.044 201.873 577.67C202.21 577.289 202.676 576.992 203.27 576.779C202.947 576.632 202.69 576.434 202.5 576.185C202.309 575.928 202.214 575.591 202.214 575.173C202.214 575.012 202.243 574.847 202.302 574.678C202.36 574.502 202.448 574.33 202.566 574.161C202.69 573.985 202.841 573.82 203.017 573.666C203.2 573.512 203.409 573.373 203.644 573.248C203.094 572.94 202.661 572.533 202.346 572.027C202.03 571.514 201.873 570.916 201.873 570.234C201.873 569.684 201.979 569.189 202.192 568.749C202.404 568.309 202.698 567.931 203.072 567.616C203.453 567.301 203.904 567.059 204.425 566.89C204.953 566.721 205.528 566.637 206.152 566.637C207.12 566.637 207.952 566.839 208.649 567.242H211.751ZM220.95 571.169C220.95 570.744 220.888 570.351 220.763 569.992C220.646 569.633 220.47 569.321 220.235 569.057C220 568.793 219.714 568.588 219.377 568.441C219.04 568.294 218.651 568.221 218.211 568.221C217.309 568.221 216.598 568.481 216.077 569.002C215.564 569.523 215.237 570.245 215.098 571.169H220.95ZM222.721 576.405C222.457 576.713 222.153 576.981 221.808 577.208C221.463 577.428 221.097 577.608 220.708 577.747C220.319 577.886 219.916 577.989 219.498 578.055C219.087 578.121 218.68 578.154 218.277 578.154C217.507 578.154 216.792 578.026 216.132 577.769C215.479 577.505 214.911 577.124 214.427 576.625C213.95 576.119 213.576 575.496 213.305 574.755C213.041 574.007 212.909 573.149 212.909 572.181C212.909 571.404 213.03 570.681 213.272 570.014C213.514 569.339 213.859 568.753 214.306 568.254C214.761 567.755 215.314 567.363 215.967 567.077C216.62 566.791 217.353 566.648 218.167 566.648C218.849 566.648 219.476 566.762 220.048 566.989C220.627 567.209 221.126 567.532 221.544 567.957C221.962 568.382 222.288 568.907 222.523 569.53C222.765 570.153 222.886 570.865 222.886 571.664C222.886 571.994 222.849 572.218 222.776 572.335C222.703 572.445 222.567 572.5 222.369 572.5H215.043C215.065 573.167 215.16 573.75 215.329 574.249C215.498 574.74 215.729 575.151 216.022 575.481C216.323 575.811 216.678 576.057 217.089 576.218C217.5 576.379 217.958 576.46 218.464 576.46C218.941 576.46 219.351 576.405 219.696 576.295C220.048 576.185 220.349 576.068 220.598 575.943C220.855 575.811 221.067 575.69 221.236 575.58C221.412 575.47 221.566 575.415 221.698 575.415C221.874 575.415 222.01 575.481 222.105 575.613L222.721 576.405ZM231.781 568.749C231.722 568.844 231.66 568.914 231.594 568.958C231.528 568.995 231.443 569.013 231.341 569.013C231.223 569.013 231.091 568.973 230.945 568.892C230.805 568.811 230.633 568.723 230.428 568.628C230.23 568.533 229.995 568.445 229.724 568.364C229.452 568.283 229.13 568.243 228.756 568.243C228.448 568.243 228.165 568.283 227.909 568.364C227.659 568.437 227.447 568.544 227.271 568.683C227.095 568.815 226.959 568.976 226.864 569.167C226.768 569.35 226.721 569.548 226.721 569.761C226.721 570.04 226.801 570.271 226.963 570.454C227.131 570.637 227.348 570.795 227.612 570.927C227.883 571.059 228.187 571.18 228.525 571.29C228.869 571.393 229.218 571.503 229.57 571.62C229.929 571.737 230.277 571.873 230.615 572.027C230.959 572.174 231.264 572.361 231.528 572.588C231.799 572.808 232.015 573.076 232.177 573.391C232.345 573.706 232.43 574.091 232.43 574.546C232.43 575.067 232.334 575.551 232.144 575.998C231.96 576.438 231.685 576.819 231.319 577.142C230.959 577.465 230.512 577.718 229.977 577.901C229.441 578.084 228.829 578.176 228.14 578.176C227.37 578.176 226.658 578.048 226.006 577.791C225.353 577.534 224.807 577.208 224.367 576.812L224.873 575.987C224.931 575.884 225.005 575.807 225.093 575.756C225.181 575.697 225.298 575.668 225.445 575.668C225.584 575.668 225.727 575.719 225.874 575.822C226.02 575.925 226.196 576.038 226.402 576.163C226.607 576.28 226.856 576.39 227.15 576.493C227.443 576.588 227.81 576.636 228.25 576.636C228.616 576.636 228.935 576.592 229.207 576.504C229.478 576.409 229.702 576.284 229.878 576.13C230.061 575.969 230.197 575.785 230.285 575.58C230.373 575.375 230.417 575.158 230.417 574.931C230.417 574.638 230.332 574.396 230.164 574.205C230.002 574.007 229.786 573.838 229.515 573.699C229.251 573.56 228.946 573.439 228.602 573.336C228.257 573.233 227.905 573.123 227.546 573.006C227.186 572.889 226.834 572.753 226.49 572.599C226.145 572.445 225.837 572.251 225.566 572.016C225.302 571.781 225.085 571.495 224.917 571.158C224.755 570.821 224.675 570.41 224.675 569.926C224.675 569.493 224.763 569.079 224.939 568.683C225.122 568.287 225.382 567.939 225.72 567.638C226.064 567.337 226.486 567.099 226.985 566.923C227.491 566.74 228.066 566.648 228.712 566.648C229.452 566.648 230.12 566.765 230.714 567C231.315 567.235 231.828 567.557 232.254 567.968L231.781 568.749ZM242.561 566.824V578H240.416V566.824H242.561ZM242.968 563.37C242.968 563.568 242.927 563.759 242.847 563.942C242.766 564.118 242.656 564.276 242.517 564.415C242.385 564.547 242.227 564.653 242.044 564.734C241.86 564.807 241.67 564.844 241.472 564.844C241.274 564.844 241.087 564.807 240.911 564.734C240.735 564.653 240.577 564.547 240.438 564.415C240.306 564.276 240.199 564.118 240.119 563.942C240.045 563.759 240.009 563.568 240.009 563.37C240.009 563.165 240.045 562.974 240.119 562.798C240.199 562.615 240.306 562.457 240.438 562.325C240.577 562.186 240.735 562.079 240.911 562.006C241.087 561.925 241.274 561.885 241.472 561.885C241.67 561.885 241.86 561.925 242.044 562.006C242.227 562.079 242.385 562.186 242.517 562.325C242.656 562.457 242.766 562.615 242.847 562.798C242.927 562.974 242.968 563.165 242.968 563.37ZM247.679 568.375C247.921 568.118 248.174 567.884 248.438 567.671C248.702 567.458 248.981 567.279 249.274 567.132C249.575 566.978 249.894 566.861 250.231 566.78C250.576 566.692 250.943 566.648 251.331 566.648C251.947 566.648 252.486 566.751 252.948 566.956C253.418 567.161 253.81 567.451 254.125 567.825C254.441 568.192 254.679 568.635 254.84 569.156C255.002 569.677 255.082 570.252 255.082 570.883V578H252.926V570.883C252.926 570.084 252.743 569.464 252.376 569.024C252.01 568.577 251.449 568.353 250.693 568.353C250.143 568.353 249.626 568.485 249.142 568.749C248.666 569.006 248.222 569.358 247.811 569.805V578H245.666V566.824H246.953C247.254 566.824 247.441 566.967 247.514 567.253L247.679 568.375ZM267.039 578.176C266.137 578.176 265.441 577.923 264.949 577.417C264.465 576.911 264.223 576.189 264.223 575.25V568.562H262.925C262.801 568.562 262.694 568.525 262.606 568.452C262.526 568.371 262.485 568.254 262.485 568.1V567.231L264.3 566.978L264.784 563.645C264.814 563.52 264.869 563.425 264.949 563.359C265.037 563.286 265.147 563.249 265.279 563.249H266.368V567H269.536V568.562H266.368V575.107C266.368 575.547 266.475 575.877 266.687 576.097C266.907 576.31 267.186 576.416 267.523 576.416C267.721 576.416 267.89 576.39 268.029 576.339C268.176 576.288 268.301 576.233 268.403 576.174C268.506 576.108 268.594 576.049 268.667 575.998C268.741 575.947 268.807 575.921 268.865 575.921C268.939 575.921 268.994 575.939 269.03 575.976C269.074 576.005 269.118 576.057 269.162 576.13L269.8 577.164C269.448 577.487 269.03 577.736 268.546 577.912C268.062 578.088 267.56 578.176 267.039 578.176ZM273.657 568.243C274.126 567.766 274.643 567.381 275.208 567.088C275.78 566.795 276.436 566.648 277.177 566.648C277.793 566.648 278.332 566.751 278.794 566.956C279.263 567.161 279.656 567.451 279.971 567.825C280.286 568.192 280.525 568.635 280.686 569.156C280.847 569.677 280.928 570.252 280.928 570.883V578H278.772V570.883C278.772 570.084 278.589 569.464 278.222 569.024C277.855 568.577 277.294 568.353 276.539 568.353C275.989 568.353 275.472 568.485 274.988 568.749C274.511 569.006 274.068 569.358 273.657 569.805V578H271.512V561.764H273.657V568.243ZM286.066 566.824V578H283.921V566.824H286.066ZM286.473 563.37C286.473 563.568 286.433 563.759 286.352 563.942C286.272 564.118 286.162 564.276 286.022 564.415C285.89 564.547 285.733 564.653 285.549 564.734C285.366 564.807 285.175 564.844 284.977 564.844C284.779 564.844 284.592 564.807 284.416 564.734C284.24 564.653 284.083 564.547 283.943 564.415C283.811 564.276 283.705 564.118 283.624 563.942C283.551 563.759 283.514 563.568 283.514 563.37C283.514 563.165 283.551 562.974 283.624 562.798C283.705 562.615 283.811 562.457 283.943 562.325C284.083 562.186 284.24 562.079 284.416 562.006C284.592 561.925 284.779 561.885 284.977 561.885C285.175 561.885 285.366 561.925 285.549 562.006C285.733 562.079 285.89 562.186 286.022 562.325C286.162 562.457 286.272 562.615 286.352 562.798C286.433 562.974 286.473 563.165 286.473 563.37ZM295.761 568.749C295.702 568.844 295.64 568.914 295.574 568.958C295.508 568.995 295.424 569.013 295.321 569.013C295.204 569.013 295.072 568.973 294.925 568.892C294.786 568.811 294.613 568.723 294.408 568.628C294.21 568.533 293.975 568.445 293.704 568.364C293.433 568.283 293.11 568.243 292.736 568.243C292.428 568.243 292.146 568.283 291.889 568.364C291.64 568.437 291.427 568.544 291.251 568.683C291.075 568.815 290.939 568.976 290.844 569.167C290.749 569.35 290.701 569.548 290.701 569.761C290.701 570.04 290.782 570.271 290.943 570.454C291.112 570.637 291.328 570.795 291.592 570.927C291.863 571.059 292.168 571.18 292.505 571.29C292.85 571.393 293.198 571.503 293.55 571.62C293.909 571.737 294.258 571.873 294.595 572.027C294.94 572.174 295.244 572.361 295.508 572.588C295.779 572.808 295.996 573.076 296.157 573.391C296.326 573.706 296.41 574.091 296.41 574.546C296.41 575.067 296.315 575.551 296.124 575.998C295.941 576.438 295.666 576.819 295.299 577.142C294.94 577.465 294.492 577.718 293.957 577.901C293.422 578.084 292.809 578.176 292.12 578.176C291.35 578.176 290.639 578.048 289.986 577.791C289.333 577.534 288.787 577.208 288.347 576.812L288.853 575.987C288.912 575.884 288.985 575.807 289.073 575.756C289.161 575.697 289.278 575.668 289.425 575.668C289.564 575.668 289.707 575.719 289.854 575.822C290.001 575.925 290.177 576.038 290.382 576.163C290.587 576.28 290.837 576.39 291.13 576.493C291.423 576.588 291.79 576.636 292.23 576.636C292.597 576.636 292.916 576.592 293.187 576.504C293.458 576.409 293.682 576.284 293.858 576.13C294.041 575.969 294.177 575.785 294.265 575.58C294.353 575.375 294.397 575.158 294.397 574.931C294.397 574.638 294.313 574.396 294.144 574.205C293.983 574.007 293.766 573.838 293.495 573.699C293.231 573.56 292.927 573.439 292.582 573.336C292.237 573.233 291.885 573.123 291.526 573.006C291.167 572.889 290.815 572.753 290.47 572.599C290.125 572.445 289.817 572.251 289.546 572.016C289.282 571.781 289.066 571.495 288.897 571.158C288.736 570.821 288.655 570.41 288.655 569.926C288.655 569.493 288.743 569.079 288.919 568.683C289.102 568.287 289.363 567.939 289.7 567.638C290.045 567.337 290.466 567.099 290.965 566.923C291.471 566.74 292.047 566.648 292.692 566.648C293.433 566.648 294.1 566.765 294.694 567C295.295 567.235 295.809 567.557 296.234 567.968L295.761 568.749ZM312.129 568.914C312.063 568.995 311.997 569.061 311.931 569.112C311.872 569.156 311.784 569.178 311.667 569.178C311.55 569.178 311.425 569.134 311.293 569.046C311.168 568.951 311.007 568.852 310.809 568.749C310.618 568.639 310.384 568.54 310.105 568.452C309.834 568.357 309.496 568.309 309.093 568.309C308.565 568.309 308.099 568.404 307.696 568.595C307.293 568.786 306.955 569.057 306.684 569.409C306.42 569.761 306.218 570.19 306.079 570.696C305.94 571.202 305.87 571.77 305.87 572.401C305.87 573.054 305.943 573.637 306.09 574.15C306.237 574.656 306.446 575.085 306.717 575.437C306.988 575.782 307.318 576.046 307.707 576.229C308.096 576.405 308.528 576.493 309.005 576.493C309.467 576.493 309.848 576.438 310.149 576.328C310.45 576.211 310.699 576.086 310.897 575.954C311.095 575.822 311.26 575.701 311.392 575.591C311.524 575.474 311.66 575.415 311.799 575.415C311.975 575.415 312.111 575.481 312.206 575.613L312.822 576.405C312.565 576.72 312.276 576.988 311.953 577.208C311.638 577.428 311.3 577.608 310.941 577.747C310.582 577.886 310.204 577.989 309.808 578.055C309.419 578.121 309.023 578.154 308.62 578.154C307.923 578.154 307.271 578.026 306.662 577.769C306.061 577.512 305.536 577.138 305.089 576.647C304.649 576.156 304.301 575.554 304.044 574.843C303.787 574.124 303.659 573.31 303.659 572.401C303.659 571.572 303.773 570.806 304 570.102C304.235 569.398 304.576 568.793 305.023 568.287C305.478 567.774 306.035 567.374 306.695 567.088C307.355 566.795 308.11 566.648 308.961 566.648C309.76 566.648 310.464 566.776 311.073 567.033C311.682 567.29 312.224 567.653 312.701 568.122L312.129 568.914ZM316.969 568.243C317.439 567.766 317.956 567.381 318.52 567.088C319.092 566.795 319.749 566.648 320.489 566.648C321.105 566.648 321.644 566.751 322.106 566.956C322.576 567.161 322.968 567.451 323.283 567.825C323.599 568.192 323.837 568.635 323.998 569.156C324.16 569.677 324.24 570.252 324.24 570.883V578H322.084V570.883C322.084 570.084 321.901 569.464 321.534 569.024C321.168 568.577 320.607 568.353 319.851 568.353C319.301 568.353 318.784 568.485 318.3 568.749C317.824 569.006 317.38 569.358 316.969 569.805V578H314.824V561.764H316.969V568.243ZM333.141 573.039C332.268 573.068 331.528 573.138 330.919 573.248C330.31 573.351 329.815 573.49 329.434 573.666C329.053 573.842 328.778 574.051 328.609 574.293C328.44 574.528 328.356 574.792 328.356 575.085C328.356 575.364 328.4 575.606 328.488 575.811C328.583 576.009 328.708 576.174 328.862 576.306C329.023 576.431 329.21 576.522 329.423 576.581C329.636 576.64 329.867 576.669 330.116 576.669C330.446 576.669 330.747 576.636 331.018 576.57C331.297 576.504 331.557 576.412 331.799 576.295C332.041 576.17 332.272 576.02 332.492 575.844C332.712 575.668 332.928 575.466 333.141 575.239V573.039ZM326.849 568.386C327.472 567.792 328.147 567.348 328.873 567.055C329.606 566.762 330.409 566.615 331.282 566.615C331.92 566.615 332.485 566.721 332.976 566.934C333.467 567.139 333.882 567.429 334.219 567.803C334.556 568.177 334.809 568.624 334.978 569.145C335.154 569.666 335.242 570.241 335.242 570.872V578H334.285C334.072 578 333.911 577.967 333.801 577.901C333.691 577.828 333.603 577.696 333.537 577.505L333.306 576.526C333.02 576.79 332.738 577.025 332.459 577.23C332.18 577.428 331.887 577.6 331.579 577.747C331.278 577.886 330.956 577.993 330.611 578.066C330.266 578.139 329.885 578.176 329.467 578.176C329.027 578.176 328.613 578.117 328.224 578C327.843 577.875 327.509 577.688 327.223 577.439C326.937 577.19 326.71 576.878 326.541 576.504C326.38 576.13 326.299 575.694 326.299 575.195C326.299 574.755 326.416 574.333 326.651 573.93C326.893 573.519 327.282 573.153 327.817 572.83C328.36 572.507 329.064 572.243 329.929 572.038C330.802 571.833 331.872 571.715 333.141 571.686V570.872C333.141 570.029 332.961 569.398 332.602 568.98C332.243 568.562 331.715 568.353 331.018 568.353C330.549 568.353 330.153 568.412 329.83 568.529C329.515 568.646 329.24 568.778 329.005 568.925C328.778 569.064 328.576 569.193 328.4 569.31C328.231 569.427 328.055 569.486 327.872 569.486C327.725 569.486 327.597 569.446 327.487 569.365C327.384 569.284 327.3 569.189 327.234 569.079L326.849 568.386ZM340.126 568.375C340.368 568.118 340.621 567.884 340.885 567.671C341.149 567.458 341.428 567.279 341.721 567.132C342.022 566.978 342.341 566.861 342.678 566.78C343.023 566.692 343.39 566.648 343.778 566.648C344.394 566.648 344.933 566.751 345.395 566.956C345.865 567.161 346.257 567.451 346.572 567.825C346.888 568.192 347.126 568.635 347.287 569.156C347.449 569.677 347.529 570.252 347.529 570.883V578H345.373V570.883C345.373 570.084 345.19 569.464 344.823 569.024C344.457 568.577 343.896 568.353 343.14 568.353C342.59 568.353 342.073 568.485 341.589 568.749C341.113 569.006 340.669 569.358 340.258 569.805V578H338.113V566.824H339.4C339.701 566.824 339.888 566.967 339.961 567.253L340.126 568.375ZM352.437 568.375C352.679 568.118 352.932 567.884 353.196 567.671C353.46 567.458 353.739 567.279 354.032 567.132C354.333 566.978 354.652 566.861 354.989 566.78C355.334 566.692 355.7 566.648 356.089 566.648C356.705 566.648 357.244 566.751 357.706 566.956C358.175 567.161 358.568 567.451 358.883 567.825C359.198 568.192 359.437 568.635 359.598 569.156C359.759 569.677 359.84 570.252 359.84 570.883V578H357.684V570.883C357.684 570.084 357.501 569.464 357.134 569.024C356.767 568.577 356.206 568.353 355.451 568.353C354.901 568.353 354.384 568.485 353.9 568.749C353.423 569.006 352.98 569.358 352.569 569.805V578H350.424V566.824H351.711C352.012 566.824 352.199 566.967 352.272 567.253L352.437 568.375ZM370.138 571.169C370.138 570.744 370.075 570.351 369.951 569.992C369.833 569.633 369.657 569.321 369.423 569.057C369.188 568.793 368.902 568.588 368.565 568.441C368.227 568.294 367.839 568.221 367.399 568.221C366.497 568.221 365.785 568.481 365.265 569.002C364.751 569.523 364.425 570.245 364.286 571.169H370.138ZM371.909 576.405C371.645 576.713 371.34 576.981 370.996 577.208C370.651 577.428 370.284 577.608 369.896 577.747C369.507 577.886 369.104 577.989 368.686 578.055C368.275 578.121 367.868 578.154 367.465 578.154C366.695 578.154 365.98 578.026 365.32 577.769C364.667 577.505 364.099 577.124 363.615 576.625C363.138 576.119 362.764 575.496 362.493 574.755C362.229 574.007 362.097 573.149 362.097 572.181C362.097 571.404 362.218 570.681 362.46 570.014C362.702 569.339 363.046 568.753 363.494 568.254C363.948 567.755 364.502 567.363 365.155 567.077C365.807 566.791 366.541 566.648 367.355 566.648C368.037 566.648 368.664 566.762 369.236 566.989C369.815 567.209 370.314 567.532 370.732 567.957C371.15 568.382 371.476 568.907 371.711 569.53C371.953 570.153 372.074 570.865 372.074 571.664C372.074 571.994 372.037 572.218 371.964 572.335C371.89 572.445 371.755 572.5 371.557 572.5H364.231C364.253 573.167 364.348 573.75 364.517 574.249C364.685 574.74 364.916 575.151 365.21 575.481C365.51 575.811 365.866 576.057 366.277 576.218C366.687 576.379 367.146 576.46 367.652 576.46C368.128 576.46 368.539 576.405 368.884 576.295C369.236 576.185 369.536 576.068 369.786 575.943C370.042 575.811 370.255 575.69 370.424 575.58C370.6 575.47 370.754 575.415 370.886 575.415C371.062 575.415 371.197 575.481 371.293 575.613L371.909 576.405ZM376.579 561.764V578H374.423V561.764H376.579ZM380.611 578C380.413 578 380.229 577.963 380.061 577.89C379.899 577.817 379.756 577.718 379.632 577.593C379.514 577.461 379.423 577.307 379.357 577.131C379.291 576.955 379.258 576.764 379.258 576.559C379.258 576.383 379.291 576.218 379.357 576.064C379.423 575.903 379.514 575.763 379.632 575.646C379.756 575.529 379.903 575.437 380.072 575.371C380.24 575.298 380.427 575.261 380.633 575.261C380.867 575.261 381.073 575.305 381.249 575.393C381.432 575.474 381.582 575.591 381.7 575.745C381.824 575.892 381.916 576.064 381.975 576.262C382.033 576.46 382.063 576.673 382.063 576.9C382.063 577.23 382.015 577.578 381.92 577.945C381.824 578.312 381.685 578.675 381.502 579.034C381.318 579.393 381.091 579.742 380.82 580.079C380.548 580.416 380.24 580.728 379.896 581.014L379.533 580.673C379.423 580.57 379.368 580.457 379.368 580.332C379.368 580.281 379.382 580.226 379.412 580.167C379.448 580.116 379.492 580.064 379.544 580.013C379.617 579.932 379.712 579.826 379.83 579.694C379.947 579.562 380.061 579.408 380.171 579.232C380.288 579.063 380.394 578.873 380.49 578.66C380.592 578.455 380.666 578.235 380.71 578H380.611ZM399.444 566.824L393.24 581.245C393.174 581.406 393.086 581.531 392.976 581.619C392.866 581.707 392.705 581.751 392.492 581.751H390.897L392.943 577.296L388.356 566.824H390.226C390.409 566.824 390.552 566.868 390.655 566.956C390.758 567.044 390.831 567.143 390.875 567.253L393.713 573.963C393.772 574.132 393.827 574.304 393.878 574.48C393.937 574.649 393.984 574.817 394.021 574.986C394.072 574.81 394.127 574.638 394.186 574.469C394.245 574.293 394.307 574.121 394.373 573.952L397.112 567.253C397.163 567.128 397.244 567.026 397.354 566.945C397.464 566.864 397.589 566.824 397.728 566.824H399.444ZM408.165 571.169C408.165 570.744 408.103 570.351 407.978 569.992C407.861 569.633 407.685 569.321 407.45 569.057C407.215 568.793 406.929 568.588 406.592 568.441C406.255 568.294 405.866 568.221 405.426 568.221C404.524 568.221 403.813 568.481 403.292 569.002C402.779 569.523 402.452 570.245 402.313 571.169H408.165ZM409.936 576.405C409.672 576.713 409.368 576.981 409.023 577.208C408.678 577.428 408.312 577.608 407.923 577.747C407.534 577.886 407.131 577.989 406.713 578.055C406.302 578.121 405.895 578.154 405.492 578.154C404.722 578.154 404.007 578.026 403.347 577.769C402.694 577.505 402.126 577.124 401.642 576.625C401.165 576.119 400.791 575.496 400.52 574.755C400.256 574.007 400.124 573.149 400.124 572.181C400.124 571.404 400.245 570.681 400.487 570.014C400.729 569.339 401.074 568.753 401.521 568.254C401.976 567.755 402.529 567.363 403.182 567.077C403.835 566.791 404.568 566.648 405.382 566.648C406.064 566.648 406.691 566.762 407.263 566.989C407.842 567.209 408.341 567.532 408.759 567.957C409.177 568.382 409.503 568.907 409.738 569.53C409.98 570.153 410.101 570.865 410.101 571.664C410.101 571.994 410.064 572.218 409.991 572.335C409.918 572.445 409.782 572.5 409.584 572.5H402.258C402.28 573.167 402.375 573.75 402.544 574.249C402.713 574.74 402.944 575.151 403.237 575.481C403.538 575.811 403.893 576.057 404.304 576.218C404.715 576.379 405.173 576.46 405.679 576.46C406.156 576.46 406.566 576.405 406.911 576.295C407.263 576.185 407.564 576.068 407.813 575.943C408.07 575.811 408.282 575.69 408.451 575.58C408.627 575.47 408.781 575.415 408.913 575.415C409.089 575.415 409.225 575.481 409.32 575.613L409.936 576.405ZM415.818 578.176C414.916 578.176 414.22 577.923 413.728 577.417C413.244 576.911 413.002 576.189 413.002 575.25V568.562H411.704C411.58 568.562 411.473 568.525 411.385 568.452C411.305 568.371 411.264 568.254 411.264 568.1V567.231L413.079 566.978L413.563 563.645C413.593 563.52 413.648 563.425 413.728 563.359C413.816 563.286 413.926 563.249 414.058 563.249H415.147V567H418.315V568.562H415.147V575.107C415.147 575.547 415.254 575.877 415.466 576.097C415.686 576.31 415.965 576.416 416.302 576.416C416.5 576.416 416.669 576.39 416.808 576.339C416.955 576.288 417.08 576.233 417.182 576.174C417.285 576.108 417.373 576.049 417.446 575.998C417.52 575.947 417.586 575.921 417.644 575.921C417.718 575.921 417.773 575.939 417.809 575.976C417.853 576.005 417.897 576.057 417.941 576.13L418.579 577.164C418.227 577.487 417.809 577.736 417.325 577.912C416.841 578.088 416.339 578.176 415.818 578.176ZM422.81 562.204V568.496C422.81 568.826 422.803 569.149 422.788 569.464C422.774 569.779 422.752 570.098 422.722 570.421C422.7 570.736 422.671 571.063 422.634 571.4C422.598 571.737 422.557 572.093 422.513 572.467H421.061C421.017 572.093 420.977 571.737 420.94 571.4C420.904 571.063 420.871 570.736 420.841 570.421C420.819 570.098 420.801 569.779 420.786 569.464C420.772 569.149 420.764 568.826 420.764 568.496V562.204H422.81ZM420.302 576.713C420.302 576.515 420.339 576.328 420.412 576.152C420.486 575.976 420.588 575.822 420.72 575.69C420.852 575.558 421.006 575.455 421.182 575.382C421.358 575.301 421.549 575.261 421.754 575.261C421.952 575.261 422.139 575.301 422.315 575.382C422.491 575.455 422.645 575.558 422.777 575.69C422.909 575.822 423.012 575.976 423.085 576.152C423.166 576.328 423.206 576.515 423.206 576.713C423.206 576.918 423.166 577.109 423.085 577.285C423.012 577.461 422.909 577.615 422.777 577.747C422.645 577.879 422.491 577.982 422.315 578.055C422.139 578.128 421.952 578.165 421.754 578.165C421.549 578.165 421.358 578.128 421.182 578.055C421.006 577.982 420.852 577.879 420.72 577.747C420.588 577.615 420.486 577.461 420.412 577.285C420.339 577.109 420.302 576.918 420.302 576.713ZM440.463 564.778C440.389 564.903 440.312 564.994 440.232 565.053C440.151 565.112 440.048 565.141 439.924 565.141C439.792 565.141 439.641 565.082 439.473 564.965C439.304 564.84 439.091 564.705 438.835 564.558C438.585 564.404 438.285 564.268 437.933 564.151C437.581 564.026 437.159 563.964 436.668 563.964C436.206 563.964 435.799 564.026 435.447 564.151C435.102 564.268 434.812 564.433 434.578 564.646C434.343 564.851 434.163 565.097 434.039 565.383C433.921 565.662 433.863 565.966 433.863 566.296C433.863 566.721 433.969 567.073 434.182 567.352C434.402 567.631 434.688 567.869 435.04 568.067C435.392 568.265 435.791 568.437 436.239 568.584C436.686 568.731 437.144 568.885 437.614 569.046C438.083 569.2 438.541 569.38 438.989 569.585C439.436 569.79 439.836 570.051 440.188 570.366C440.54 570.674 440.822 571.055 441.035 571.51C441.255 571.957 441.365 572.507 441.365 573.16C441.365 573.857 441.244 574.509 441.002 575.118C440.767 575.727 440.422 576.258 439.968 576.713C439.513 577.168 438.952 577.527 438.285 577.791C437.625 578.048 436.873 578.176 436.03 578.176C435.524 578.176 435.032 578.125 434.556 578.022C434.079 577.927 433.628 577.791 433.203 577.615C432.777 577.432 432.378 577.215 432.004 576.966C431.637 576.709 431.307 576.423 431.014 576.108L431.685 574.986C431.751 574.898 431.828 574.825 431.916 574.766C432.011 574.707 432.117 574.678 432.235 574.678C432.389 574.678 432.565 574.759 432.763 574.92C432.968 575.081 433.217 575.261 433.511 575.459C433.811 575.65 434.167 575.826 434.578 575.987C434.996 576.148 435.502 576.229 436.096 576.229C436.58 576.229 437.012 576.167 437.394 576.042C437.775 575.91 438.094 575.727 438.351 575.492C438.615 575.25 438.816 574.96 438.956 574.623C439.095 574.286 439.165 573.912 439.165 573.501C439.165 573.039 439.058 572.661 438.846 572.368C438.633 572.075 438.351 571.829 437.999 571.631C437.647 571.433 437.247 571.264 436.8 571.125C436.352 570.986 435.894 570.843 435.425 570.696C434.955 570.542 434.497 570.366 434.05 570.168C433.602 569.97 433.203 569.713 432.851 569.398C432.499 569.075 432.216 568.676 432.004 568.199C431.791 567.715 431.685 567.121 431.685 566.417C431.685 565.852 431.795 565.306 432.015 564.778C432.235 564.25 432.554 563.784 432.972 563.381C433.397 562.97 433.918 562.644 434.534 562.402C435.15 562.153 435.854 562.028 436.646 562.028C437.533 562.028 438.347 562.171 439.088 562.457C439.836 562.736 440.485 563.139 441.035 563.667L440.463 564.778ZM446.82 578.176C445.918 578.176 445.222 577.923 444.73 577.417C444.246 576.911 444.004 576.189 444.004 575.25V568.562H442.706C442.582 568.562 442.475 568.525 442.387 568.452C442.307 568.371 442.266 568.254 442.266 568.1V567.231L444.081 566.978L444.565 563.645C444.595 563.52 444.65 563.425 444.73 563.359C444.818 563.286 444.928 563.249 445.06 563.249H446.149V567H449.317V568.562H446.149V575.107C446.149 575.547 446.256 575.877 446.468 576.097C446.688 576.31 446.967 576.416 447.304 576.416C447.502 576.416 447.671 576.39 447.81 576.339C447.957 576.288 448.082 576.233 448.184 576.174C448.287 576.108 448.375 576.049 448.448 575.998C448.522 575.947 448.588 575.921 448.646 575.921C448.72 575.921 448.775 575.939 448.811 575.976C448.855 576.005 448.899 576.057 448.943 576.13L449.581 577.164C449.229 577.487 448.811 577.736 448.327 577.912C447.843 578.088 447.341 578.176 446.82 578.176ZM457.299 573.039C456.426 573.068 455.686 573.138 455.077 573.248C454.468 573.351 453.973 573.49 453.592 573.666C453.211 573.842 452.936 574.051 452.767 574.293C452.598 574.528 452.514 574.792 452.514 575.085C452.514 575.364 452.558 575.606 452.646 575.811C452.741 576.009 452.866 576.174 453.02 576.306C453.181 576.431 453.368 576.522 453.581 576.581C453.794 576.64 454.025 576.669 454.274 576.669C454.604 576.669 454.905 576.636 455.176 576.57C455.455 576.504 455.715 576.412 455.957 576.295C456.199 576.17 456.43 576.02 456.65 575.844C456.87 575.668 457.086 575.466 457.299 575.239V573.039ZM451.007 568.386C451.63 567.792 452.305 567.348 453.031 567.055C453.764 566.762 454.567 566.615 455.44 566.615C456.078 566.615 456.643 566.721 457.134 566.934C457.625 567.139 458.04 567.429 458.377 567.803C458.714 568.177 458.967 568.624 459.136 569.145C459.312 569.666 459.4 570.241 459.4 570.872V578H458.443C458.23 578 458.069 577.967 457.959 577.901C457.849 577.828 457.761 577.696 457.695 577.505L457.464 576.526C457.178 576.79 456.896 577.025 456.617 577.23C456.338 577.428 456.045 577.6 455.737 577.747C455.436 577.886 455.114 577.993 454.769 578.066C454.424 578.139 454.043 578.176 453.625 578.176C453.185 578.176 452.771 578.117 452.382 578C452.001 577.875 451.667 577.688 451.381 577.439C451.095 577.19 450.868 576.878 450.699 576.504C450.538 576.13 450.457 575.694 450.457 575.195C450.457 574.755 450.574 574.333 450.809 573.93C451.051 573.519 451.44 573.153 451.975 572.83C452.518 572.507 453.222 572.243 454.087 572.038C454.96 571.833 456.03 571.715 457.299 571.686V570.872C457.299 570.029 457.119 569.398 456.76 568.98C456.401 568.562 455.873 568.353 455.176 568.353C454.707 568.353 454.311 568.412 453.988 568.529C453.673 568.646 453.398 568.778 453.163 568.925C452.936 569.064 452.734 569.193 452.558 569.31C452.389 569.427 452.213 569.486 452.03 569.486C451.883 569.486 451.755 569.446 451.645 569.365C451.542 569.284 451.458 569.189 451.392 569.079L451.007 568.386ZM464.296 568.969C464.655 568.236 465.088 567.66 465.594 567.242C466.1 566.824 466.708 566.615 467.42 566.615C467.662 566.615 467.889 566.644 468.102 566.703C468.322 566.754 468.512 566.835 468.674 566.945L468.531 568.562C468.479 568.76 468.358 568.859 468.168 568.859C468.065 568.859 467.911 568.841 467.706 568.804C467.5 568.76 467.28 568.738 467.046 568.738C466.701 568.738 466.397 568.789 466.133 568.892C465.869 568.987 465.63 569.134 465.418 569.332C465.212 569.523 465.029 569.761 464.868 570.047C464.706 570.326 464.556 570.645 464.417 571.004V578H462.272V566.824H463.504C463.738 566.824 463.896 566.868 463.977 566.956C464.065 567.037 464.127 567.183 464.164 567.396L464.296 568.969ZM473.826 578.176C472.924 578.176 472.228 577.923 471.736 577.417C471.252 576.911 471.01 576.189 471.01 575.25V568.562H469.712C469.588 568.562 469.481 568.525 469.393 568.452C469.313 568.371 469.272 568.254 469.272 568.1V567.231L471.087 566.978L471.571 563.645C471.601 563.52 471.656 563.425 471.736 563.359C471.824 563.286 471.934 563.249 472.066 563.249H473.155V567H476.323V568.562H473.155V575.107C473.155 575.547 473.262 575.877 473.474 576.097C473.694 576.31 473.973 576.416 474.31 576.416C474.508 576.416 474.677 576.39 474.816 576.339C474.963 576.288 475.088 576.233 475.19 576.174C475.293 576.108 475.381 576.049 475.454 575.998C475.528 575.947 475.594 575.921 475.652 575.921C475.726 575.921 475.781 575.939 475.817 575.976C475.861 576.005 475.905 576.057 475.949 576.13L476.587 577.164C476.235 577.487 475.817 577.736 475.333 577.912C474.849 578.088 474.347 578.176 473.826 578.176ZM142.134 594.914C142.068 594.995 142.002 595.061 141.936 595.112C141.877 595.156 141.789 595.178 141.672 595.178C141.555 595.178 141.43 595.134 141.298 595.046C141.173 594.951 141.012 594.852 140.814 594.749C140.623 594.639 140.389 594.54 140.11 594.452C139.839 594.357 139.501 594.309 139.098 594.309C138.57 594.309 138.104 594.404 137.701 594.595C137.298 594.786 136.96 595.057 136.689 595.409C136.425 595.761 136.223 596.19 136.084 596.696C135.945 597.202 135.875 597.77 135.875 598.401C135.875 599.054 135.948 599.637 136.095 600.15C136.242 600.656 136.451 601.085 136.722 601.437C136.993 601.782 137.323 602.046 137.712 602.229C138.101 602.405 138.533 602.493 139.01 602.493C139.472 602.493 139.853 602.438 140.154 602.328C140.455 602.211 140.704 602.086 140.902 601.954C141.1 601.822 141.265 601.701 141.397 601.591C141.529 601.474 141.665 601.415 141.804 601.415C141.98 601.415 142.116 601.481 142.211 601.613L142.827 602.405C142.57 602.72 142.281 602.988 141.958 603.208C141.643 603.428 141.305 603.608 140.946 603.747C140.587 603.886 140.209 603.989 139.813 604.055C139.424 604.121 139.028 604.154 138.625 604.154C137.928 604.154 137.276 604.026 136.667 603.769C136.066 603.512 135.541 603.138 135.094 602.647C134.654 602.156 134.306 601.554 134.049 600.843C133.792 600.124 133.664 599.31 133.664 598.401C133.664 597.572 133.778 596.806 134.005 596.102C134.24 595.398 134.581 594.793 135.028 594.287C135.483 593.774 136.04 593.374 136.7 593.088C137.36 592.795 138.115 592.648 138.966 592.648C139.765 592.648 140.469 592.776 141.078 593.033C141.687 593.29 142.229 593.653 142.706 594.122L142.134 594.914ZM146.974 594.243C147.444 593.766 147.961 593.381 148.525 593.088C149.097 592.795 149.754 592.648 150.494 592.648C151.11 592.648 151.649 592.751 152.111 592.956C152.581 593.161 152.973 593.451 153.288 593.825C153.604 594.192 153.842 594.635 154.003 595.156C154.165 595.677 154.245 596.252 154.245 596.883V604H152.089V596.883C152.089 596.084 151.906 595.464 151.539 595.024C151.173 594.577 150.612 594.353 149.856 594.353C149.306 594.353 148.789 594.485 148.305 594.749C147.829 595.006 147.385 595.358 146.974 595.805V604H144.829V587.764H146.974V594.243ZM163.146 599.039C162.273 599.068 161.532 599.138 160.924 599.248C160.315 599.351 159.82 599.49 159.439 599.666C159.057 599.842 158.782 600.051 158.614 600.293C158.445 600.528 158.361 600.792 158.361 601.085C158.361 601.364 158.405 601.606 158.493 601.811C158.588 602.009 158.713 602.174 158.867 602.306C159.028 602.431 159.215 602.522 159.428 602.581C159.64 602.64 159.871 602.669 160.121 602.669C160.451 602.669 160.751 602.636 161.023 602.57C161.301 602.504 161.562 602.412 161.804 602.295C162.046 602.17 162.277 602.02 162.497 601.844C162.717 601.668 162.933 601.466 163.146 601.239V599.039ZM156.854 594.386C157.477 593.792 158.152 593.348 158.878 593.055C159.611 592.762 160.414 592.615 161.287 592.615C161.925 592.615 162.489 592.721 162.981 592.934C163.472 593.139 163.886 593.429 164.224 593.803C164.561 594.177 164.814 594.624 164.983 595.145C165.159 595.666 165.247 596.241 165.247 596.872V604H164.29C164.077 604 163.916 603.967 163.806 603.901C163.696 603.828 163.608 603.696 163.542 603.505L163.311 602.526C163.025 602.79 162.742 603.025 162.464 603.23C162.185 603.428 161.892 603.6 161.584 603.747C161.283 603.886 160.96 603.993 160.616 604.066C160.271 604.139 159.89 604.176 159.472 604.176C159.032 604.176 158.617 604.117 158.229 604C157.847 603.875 157.514 603.688 157.228 603.439C156.942 603.19 156.714 602.878 156.546 602.504C156.384 602.13 156.304 601.694 156.304 601.195C156.304 600.755 156.421 600.333 156.656 599.93C156.898 599.519 157.286 599.153 157.822 598.83C158.364 598.507 159.068 598.243 159.934 598.038C160.806 597.833 161.877 597.715 163.146 597.686V596.872C163.146 596.029 162.966 595.398 162.607 594.98C162.247 594.562 161.719 594.353 161.023 594.353C160.553 594.353 160.157 594.412 159.835 594.529C159.519 594.646 159.244 594.778 159.01 594.925C158.782 595.064 158.581 595.193 158.405 595.31C158.236 595.427 158.06 595.486 157.877 595.486C157.73 595.486 157.602 595.446 157.492 595.365C157.389 595.284 157.305 595.189 157.239 595.079L156.854 594.386ZM185.524 604H183.368V594.562H177.978V601.107C177.978 601.547 178.084 601.877 178.297 602.097C178.51 602.31 178.788 602.416 179.133 602.416C179.331 602.416 179.5 602.39 179.639 602.339C179.786 602.288 179.91 602.233 180.013 602.174C180.116 602.108 180.204 602.049 180.277 601.998C180.35 601.947 180.416 601.921 180.475 601.921C180.541 601.921 180.596 601.939 180.64 601.976C180.684 602.005 180.728 602.057 180.772 602.13L181.41 603.164C181.058 603.487 180.636 603.736 180.145 603.912C179.661 604.088 179.159 604.176 178.638 604.176C177.736 604.176 177.039 603.923 176.548 603.417C176.064 602.911 175.822 602.189 175.822 601.25V594.562H170.795V601.107C170.795 601.547 170.901 601.877 171.114 602.097C171.334 602.31 171.613 602.416 171.95 602.416C172.148 602.416 172.317 602.39 172.456 602.339C172.603 602.288 172.727 602.233 172.83 602.174C172.933 602.108 173.021 602.049 173.094 601.998C173.167 601.947 173.233 601.921 173.292 601.921C173.365 601.921 173.42 601.939 173.457 601.976C173.501 602.005 173.545 602.057 173.589 602.13L174.227 603.164C173.875 603.487 173.457 603.736 172.973 603.912C172.489 604.088 171.987 604.176 171.466 604.176C170.564 604.176 169.867 603.923 169.376 603.417C168.892 602.911 168.65 602.189 168.65 601.25V594.562H167.352C167.227 594.562 167.121 594.525 167.033 594.452C166.952 594.371 166.912 594.254 166.912 594.1V593.231L168.738 592.978L169.211 589.645C169.24 589.52 169.295 589.425 169.376 589.359C169.464 589.286 169.574 589.249 169.706 589.249H170.795V593H175.899L176.394 589.645C176.416 589.52 176.467 589.425 176.548 589.359C176.636 589.286 176.746 589.249 176.878 589.249H177.978V593H185.524V604ZM185.964 589.304C185.964 589.502 185.924 589.693 185.843 589.876C185.762 590.052 185.652 590.21 185.513 590.349C185.381 590.481 185.223 590.587 185.04 590.668C184.857 590.741 184.666 590.778 184.468 590.778C184.27 590.778 184.083 590.741 183.907 590.668C183.731 590.587 183.573 590.481 183.434 590.349C183.302 590.21 183.196 590.052 183.115 589.876C183.042 589.693 183.005 589.502 183.005 589.304C183.005 589.099 183.042 588.904 183.115 588.721C183.196 588.538 183.302 588.38 183.434 588.248C183.573 588.109 183.731 588.002 183.907 587.929C184.083 587.848 184.27 587.808 184.468 587.808C184.666 587.808 184.857 587.848 185.04 587.929C185.223 588.002 185.381 588.109 185.513 588.248C185.652 588.38 185.762 588.538 185.843 588.721C185.924 588.904 185.964 589.099 185.964 589.304ZM190.649 594.375C190.891 594.118 191.144 593.884 191.408 593.671C191.672 593.458 191.951 593.279 192.244 593.132C192.545 592.978 192.864 592.861 193.201 592.78C193.546 592.692 193.912 592.648 194.301 592.648C194.917 592.648 195.456 592.751 195.918 592.956C196.387 593.161 196.78 593.451 197.095 593.825C197.41 594.192 197.649 594.635 197.81 595.156C197.971 595.677 198.052 596.252 198.052 596.883V604H195.896V596.883C195.896 596.084 195.713 595.464 195.346 595.024C194.979 594.577 194.418 594.353 193.663 594.353C193.113 594.353 192.596 594.485 192.112 594.749C191.635 595.006 191.192 595.358 190.781 595.805V604H188.636V592.824H189.923C190.224 592.824 190.411 592.967 190.484 593.253L190.649 594.375ZM204.873 598.423C205.255 598.423 205.588 598.372 205.874 598.269C206.168 598.166 206.41 598.023 206.6 597.84C206.798 597.649 206.945 597.422 207.04 597.158C207.143 596.894 207.194 596.604 207.194 596.289C207.194 595.644 206.996 595.13 206.6 594.749C206.212 594.36 205.636 594.166 204.873 594.166C204.118 594.166 203.542 594.36 203.146 594.749C202.758 595.13 202.563 595.644 202.563 596.289C202.563 596.604 202.611 596.894 202.706 597.158C202.809 597.415 202.956 597.638 203.146 597.829C203.344 598.012 203.586 598.159 203.872 598.269C204.166 598.372 204.499 598.423 204.873 598.423ZM208.294 604.583C208.294 604.319 208.221 604.11 208.074 603.956C207.928 603.795 207.726 603.67 207.469 603.582C207.22 603.487 206.927 603.421 206.589 603.384C206.252 603.34 205.896 603.307 205.522 603.285C205.156 603.263 204.778 603.245 204.389 603.23C204.001 603.208 203.627 603.171 203.267 603.12C202.886 603.311 202.571 603.542 202.321 603.813C202.079 604.084 201.958 604.403 201.958 604.77C201.958 605.005 202.017 605.225 202.134 605.43C202.259 605.635 202.446 605.811 202.695 605.958C202.952 606.112 203.271 606.229 203.652 606.31C204.041 606.398 204.503 606.442 205.038 606.442C205.566 606.442 206.032 606.394 206.435 606.299C206.839 606.211 207.176 606.083 207.447 605.914C207.726 605.753 207.935 605.558 208.074 605.331C208.221 605.104 208.294 604.854 208.294 604.583ZM210.472 593.242V594.045C210.472 594.309 210.307 594.474 209.977 594.54L208.778 594.716C208.881 594.943 208.962 595.185 209.02 595.442C209.079 595.691 209.108 595.955 209.108 596.234C209.108 596.784 209.002 597.283 208.789 597.73C208.577 598.17 208.283 598.548 207.909 598.863C207.535 599.178 207.088 599.42 206.567 599.589C206.054 599.758 205.489 599.842 204.873 599.842C204.367 599.842 203.894 599.787 203.454 599.677C203.234 599.809 203.066 599.956 202.948 600.117C202.838 600.271 202.783 600.425 202.783 600.579C202.783 600.836 202.89 601.026 203.102 601.151C203.322 601.276 203.605 601.367 203.949 601.426C204.301 601.477 204.701 601.51 205.148 601.525C205.603 601.54 206.061 601.565 206.523 601.602C206.993 601.631 207.451 601.69 207.898 601.778C208.353 601.859 208.753 601.994 209.097 602.185C209.449 602.368 209.732 602.625 209.944 602.955C210.164 603.278 210.274 603.699 210.274 604.22C210.274 604.704 210.153 605.173 209.911 605.628C209.677 606.083 209.332 606.486 208.877 606.838C208.423 607.19 207.869 607.472 207.216 607.685C206.564 607.898 205.823 608.004 204.994 608.004C204.166 608.004 203.443 607.923 202.827 607.762C202.219 607.601 201.709 607.384 201.298 607.113C200.895 606.842 200.591 606.526 200.385 606.167C200.187 605.808 200.088 605.434 200.088 605.045C200.088 604.502 200.257 604.044 200.594 603.67C200.932 603.289 201.397 602.992 201.991 602.779C201.669 602.632 201.412 602.434 201.221 602.185C201.031 601.928 200.935 601.591 200.935 601.173C200.935 601.012 200.965 600.847 201.023 600.678C201.082 600.502 201.17 600.33 201.287 600.161C201.412 599.985 201.562 599.82 201.738 599.666C201.922 599.512 202.131 599.373 202.365 599.248C201.815 598.94 201.383 598.533 201.067 598.027C200.752 597.514 200.594 596.916 200.594 596.234C200.594 595.684 200.701 595.189 200.913 594.749C201.126 594.309 201.419 593.931 201.793 593.616C202.175 593.301 202.626 593.059 203.146 592.89C203.674 592.721 204.25 592.637 204.873 592.637C205.841 592.637 206.674 592.839 207.37 593.242H210.472ZM233.097 592.824L229.5 604H227.784C227.579 604 227.439 603.864 227.366 603.593L225.012 596.311C224.953 596.128 224.902 595.948 224.858 595.772C224.814 595.589 224.774 595.405 224.737 595.222C224.671 595.603 224.579 595.974 224.462 596.333L222.075 603.593C222.002 603.864 221.844 604 221.602 604H219.974L216.366 592.824H218.06C218.229 592.824 218.368 592.864 218.478 592.945C218.595 593.026 218.672 593.128 218.709 593.253L220.722 600.117C220.788 600.396 220.847 600.667 220.898 600.931C220.949 601.195 220.997 601.459 221.041 601.723C221.107 601.459 221.177 601.195 221.25 600.931C221.331 600.667 221.411 600.396 221.492 600.117L223.725 593.209C223.762 593.084 223.831 592.985 223.934 592.912C224.037 592.831 224.161 592.791 224.308 592.791H225.243C225.404 592.791 225.536 592.831 225.639 592.912C225.749 592.985 225.822 593.084 225.859 593.209L228.037 600.117C228.118 600.396 228.195 600.671 228.268 600.942C228.341 601.206 228.407 601.474 228.466 601.745C228.51 601.481 228.561 601.217 228.62 600.953C228.679 600.682 228.745 600.403 228.818 600.117L230.864 593.253C230.901 593.128 230.974 593.026 231.084 592.945C231.201 592.864 231.333 592.824 231.48 592.824H233.097ZM237.157 592.824V604H235.012V592.824H237.157ZM237.564 589.37C237.564 589.568 237.524 589.759 237.443 589.942C237.363 590.118 237.253 590.276 237.113 590.415C236.981 590.547 236.824 590.653 236.64 590.734C236.457 590.807 236.266 590.844 236.068 590.844C235.87 590.844 235.683 590.807 235.507 590.734C235.331 590.653 235.174 590.547 235.034 590.415C234.902 590.276 234.796 590.118 234.715 589.942C234.642 589.759 234.605 589.568 234.605 589.37C234.605 589.165 234.642 588.974 234.715 588.798C234.796 588.615 234.902 588.457 235.034 588.325C235.174 588.186 235.331 588.079 235.507 588.006C235.683 587.925 235.87 587.885 236.068 587.885C236.266 587.885 236.457 587.925 236.64 588.006C236.824 588.079 236.981 588.186 237.113 588.325C237.253 588.457 237.363 588.615 237.443 588.798C237.524 588.974 237.564 589.165 237.564 589.37ZM243.761 604.176C242.859 604.176 242.162 603.923 241.671 603.417C241.187 602.911 240.945 602.189 240.945 601.25V594.562H239.647C239.522 594.562 239.416 594.525 239.328 594.452C239.247 594.371 239.207 594.254 239.207 594.1V593.231L241.022 592.978L241.506 589.645C241.535 589.52 241.59 589.425 241.671 589.359C241.759 589.286 241.869 589.249 242.001 589.249H243.09V593H246.258V594.562H243.09V601.107C243.09 601.547 243.196 601.877 243.409 602.097C243.629 602.31 243.908 602.416 244.245 602.416C244.443 602.416 244.612 602.39 244.751 602.339C244.898 602.288 245.022 602.233 245.125 602.174C245.228 602.108 245.316 602.049 245.389 601.998C245.462 601.947 245.528 601.921 245.587 601.921C245.66 601.921 245.715 601.939 245.752 601.976C245.796 602.005 245.84 602.057 245.884 602.13L246.522 603.164C246.17 603.487 245.752 603.736 245.268 603.912C244.784 604.088 244.282 604.176 243.761 604.176ZM250.379 594.243C250.848 593.766 251.365 593.381 251.93 593.088C252.502 592.795 253.158 592.648 253.899 592.648C254.515 592.648 255.054 592.751 255.516 592.956C255.985 593.161 256.377 593.451 256.693 593.825C257.008 594.192 257.246 594.635 257.408 595.156C257.569 595.677 257.65 596.252 257.65 596.883V604H255.494V596.883C255.494 596.084 255.31 595.464 254.944 595.024C254.577 594.577 254.016 594.353 253.261 594.353C252.711 594.353 252.194 594.485 251.71 594.749C251.233 595.006 250.789 595.358 250.379 595.805V604H248.234V587.764H250.379V594.243ZM268.254 601.25C268.606 601.712 268.983 602.035 269.387 602.218C269.797 602.401 270.256 602.493 270.762 602.493C271.744 602.493 272.503 602.141 273.039 601.437C273.581 600.726 273.853 599.692 273.853 598.335C273.853 597.624 273.79 597.019 273.666 596.52C273.548 596.014 273.372 595.603 273.138 595.288C272.91 594.965 272.628 594.731 272.291 594.584C271.953 594.43 271.572 594.353 271.147 594.353C270.523 594.353 269.981 594.492 269.519 594.771C269.064 595.05 268.642 595.446 268.254 595.959V601.25ZM268.144 594.496C268.378 594.217 268.628 593.964 268.892 593.737C269.163 593.502 269.453 593.304 269.761 593.143C270.069 592.974 270.395 592.846 270.74 592.758C271.092 592.663 271.466 592.615 271.862 592.615C272.5 592.615 273.075 592.74 273.589 592.989C274.109 593.238 274.553 593.605 274.92 594.089C275.286 594.573 275.569 595.171 275.767 595.882C275.972 596.593 276.075 597.411 276.075 598.335C276.075 599.164 275.961 599.934 275.734 600.645C275.514 601.349 275.195 601.961 274.777 602.482C274.366 603.003 273.86 603.413 273.259 603.714C272.665 604.007 271.994 604.154 271.246 604.154C270.578 604.154 270.006 604.044 269.53 603.824C269.053 603.604 268.628 603.296 268.254 602.9V607.751H266.109V592.824H267.396C267.696 592.824 267.883 592.967 267.957 593.253L268.144 594.496ZM285.887 597.169C285.887 596.744 285.824 596.351 285.7 595.992C285.582 595.633 285.406 595.321 285.172 595.057C284.937 594.793 284.651 594.588 284.314 594.441C283.976 594.294 283.588 594.221 283.148 594.221C282.246 594.221 281.534 594.481 281.014 595.002C280.5 595.523 280.174 596.245 280.035 597.169H285.887ZM287.658 602.405C287.394 602.713 287.089 602.981 286.745 603.208C286.4 603.428 286.033 603.608 285.645 603.747C285.256 603.886 284.853 603.989 284.435 604.055C284.024 604.121 283.617 604.154 283.214 604.154C282.444 604.154 281.729 604.026 281.069 603.769C280.416 603.505 279.848 603.124 279.364 602.625C278.887 602.119 278.513 601.496 278.242 600.755C277.978 600.007 277.846 599.149 277.846 598.181C277.846 597.404 277.967 596.681 278.209 596.014C278.451 595.339 278.795 594.753 279.243 594.254C279.697 593.755 280.251 593.363 280.904 593.077C281.556 592.791 282.29 592.648 283.104 592.648C283.786 592.648 284.413 592.762 284.985 592.989C285.564 593.209 286.063 593.532 286.481 593.957C286.899 594.382 287.225 594.907 287.46 595.53C287.702 596.153 287.823 596.865 287.823 597.664C287.823 597.994 287.786 598.218 287.713 598.335C287.639 598.445 287.504 598.5 287.306 598.5H279.98C280.002 599.167 280.097 599.75 280.266 600.249C280.434 600.74 280.665 601.151 280.959 601.481C281.259 601.811 281.615 602.057 282.026 602.218C282.436 602.379 282.895 602.46 283.401 602.46C283.877 602.46 284.288 602.405 284.633 602.295C284.985 602.185 285.285 602.068 285.535 601.943C285.791 601.811 286.004 601.69 286.173 601.58C286.349 601.47 286.503 601.415 286.635 601.415C286.811 601.415 286.946 601.481 287.042 601.613L287.658 602.405ZM294.891 592.648C295.712 592.648 296.453 592.784 297.113 593.055C297.78 593.319 298.345 593.704 298.807 594.21C299.276 594.709 299.636 595.314 299.885 596.025C300.134 596.729 300.259 597.521 300.259 598.401C300.259 599.281 300.134 600.077 299.885 600.788C299.636 601.499 299.276 602.104 298.807 602.603C298.345 603.102 297.78 603.487 297.113 603.758C296.453 604.022 295.712 604.154 294.891 604.154C294.062 604.154 293.314 604.022 292.647 603.758C291.987 603.487 291.422 603.102 290.953 602.603C290.484 602.104 290.121 601.499 289.864 600.788C289.615 600.077 289.49 599.281 289.49 598.401C289.49 597.521 289.615 596.729 289.864 596.025C290.121 595.314 290.484 594.709 290.953 594.21C291.422 593.704 291.987 593.319 292.647 593.055C293.314 592.784 294.062 592.648 294.891 592.648ZM294.891 602.482C295.947 602.482 296.735 602.126 297.256 601.415C297.777 600.704 298.037 599.703 298.037 598.412C298.037 597.121 297.777 596.12 297.256 595.409C296.735 594.69 295.947 594.331 294.891 594.331C293.82 594.331 293.021 594.69 292.493 595.409C291.972 596.12 291.712 597.121 291.712 598.412C291.712 599.703 291.972 600.704 292.493 601.415C293.021 602.126 293.82 602.482 294.891 602.482ZM304.798 601.25C305.15 601.712 305.528 602.035 305.931 602.218C306.342 602.401 306.8 602.493 307.306 602.493C308.289 602.493 309.048 602.141 309.583 601.437C310.126 600.726 310.397 599.692 310.397 598.335C310.397 597.624 310.335 597.019 310.21 596.52C310.093 596.014 309.917 595.603 309.682 595.288C309.455 594.965 309.173 594.731 308.835 594.584C308.498 594.43 308.117 594.353 307.691 594.353C307.068 594.353 306.525 594.492 306.063 594.771C305.609 595.05 305.187 595.446 304.798 595.959V601.25ZM304.688 594.496C304.923 594.217 305.172 593.964 305.436 593.737C305.708 593.502 305.997 593.304 306.305 593.143C306.613 592.974 306.94 592.846 307.284 592.758C307.636 592.663 308.01 592.615 308.406 592.615C309.044 592.615 309.62 592.74 310.133 592.989C310.654 593.238 311.098 593.605 311.464 594.089C311.831 594.573 312.113 595.171 312.311 595.882C312.517 596.593 312.619 597.411 312.619 598.335C312.619 599.164 312.506 599.934 312.278 600.645C312.058 601.349 311.739 601.961 311.321 602.482C310.911 603.003 310.405 603.413 309.803 603.714C309.209 604.007 308.538 604.154 307.79 604.154C307.123 604.154 306.551 604.044 306.074 603.824C305.598 603.604 305.172 603.296 304.798 602.9V607.751H302.653V592.824H303.94C304.241 592.824 304.428 592.967 304.501 593.253L304.688 594.496ZM317.228 587.764V604H315.072V587.764H317.228ZM327.695 597.169C327.695 596.744 327.633 596.351 327.508 595.992C327.391 595.633 327.215 595.321 326.98 595.057C326.745 594.793 326.459 594.588 326.122 594.441C325.785 594.294 325.396 594.221 324.956 594.221C324.054 594.221 323.343 594.481 322.822 595.002C322.309 595.523 321.982 596.245 321.843 597.169H327.695ZM329.466 602.405C329.202 602.713 328.898 602.981 328.553 603.208C328.208 603.428 327.842 603.608 327.453 603.747C327.064 603.886 326.661 603.989 326.243 604.055C325.832 604.121 325.425 604.154 325.022 604.154C324.252 604.154 323.537 604.026 322.877 603.769C322.224 603.505 321.656 603.124 321.172 602.625C320.695 602.119 320.321 601.496 320.05 600.755C319.786 600.007 319.654 599.149 319.654 598.181C319.654 597.404 319.775 596.681 320.017 596.014C320.259 595.339 320.604 594.753 321.051 594.254C321.506 593.755 322.059 593.363 322.712 593.077C323.365 592.791 324.098 592.648 324.912 592.648C325.594 592.648 326.221 592.762 326.793 592.989C327.372 593.209 327.871 593.532 328.289 593.957C328.707 594.382 329.033 594.907 329.268 595.53C329.51 596.153 329.631 596.865 329.631 597.664C329.631 597.994 329.594 598.218 329.521 598.335C329.448 598.445 329.312 598.5 329.114 598.5H321.788C321.81 599.167 321.905 599.75 322.074 600.249C322.243 600.74 322.474 601.151 322.767 601.481C323.068 601.811 323.423 602.057 323.834 602.218C324.245 602.379 324.703 602.46 325.209 602.46C325.686 602.46 326.096 602.405 326.441 602.295C326.793 602.185 327.094 602.068 327.343 601.943C327.6 601.811 327.812 601.69 327.981 601.58C328.157 601.47 328.311 601.415 328.443 601.415C328.619 601.415 328.755 601.481 328.85 601.613L329.466 602.405ZM343.507 599.039C342.634 599.068 341.894 599.138 341.285 599.248C340.676 599.351 340.181 599.49 339.8 599.666C339.419 599.842 339.144 600.051 338.975 600.293C338.806 600.528 338.722 600.792 338.722 601.085C338.722 601.364 338.766 601.606 338.854 601.811C338.949 602.009 339.074 602.174 339.228 602.306C339.389 602.431 339.576 602.522 339.789 602.581C340.002 602.64 340.233 602.669 340.482 602.669C340.812 602.669 341.113 602.636 341.384 602.57C341.663 602.504 341.923 602.412 342.165 602.295C342.407 602.17 342.638 602.02 342.858 601.844C343.078 601.668 343.294 601.466 343.507 601.239V599.039ZM337.215 594.386C337.838 593.792 338.513 593.348 339.239 593.055C339.972 592.762 340.775 592.615 341.648 592.615C342.286 592.615 342.851 592.721 343.342 592.934C343.833 593.139 344.248 593.429 344.585 593.803C344.922 594.177 345.175 594.624 345.344 595.145C345.52 595.666 345.608 596.241 345.608 596.872V604H344.651C344.438 604 344.277 603.967 344.167 603.901C344.057 603.828 343.969 603.696 343.903 603.505L343.672 602.526C343.386 602.79 343.104 603.025 342.825 603.23C342.546 603.428 342.253 603.6 341.945 603.747C341.644 603.886 341.322 603.993 340.977 604.066C340.632 604.139 340.251 604.176 339.833 604.176C339.393 604.176 338.979 604.117 338.59 604C338.209 603.875 337.875 603.688 337.589 603.439C337.303 603.19 337.076 602.878 336.907 602.504C336.746 602.13 336.665 601.694 336.665 601.195C336.665 600.755 336.782 600.333 337.017 599.93C337.259 599.519 337.648 599.153 338.183 598.83C338.726 598.507 339.43 598.243 340.295 598.038C341.168 597.833 342.238 597.715 343.507 597.686V596.872C343.507 596.029 343.327 595.398 342.968 594.98C342.609 594.562 342.081 594.353 341.384 594.353C340.915 594.353 340.519 594.412 340.196 594.529C339.881 594.646 339.606 594.778 339.371 594.925C339.144 595.064 338.942 595.193 338.766 595.31C338.597 595.427 338.421 595.486 338.238 595.486C338.091 595.486 337.963 595.446 337.853 595.365C337.75 595.284 337.666 595.189 337.6 595.079L337.215 594.386ZM350.504 594.969C350.863 594.236 351.296 593.66 351.802 593.242C352.308 592.824 352.916 592.615 353.628 592.615C353.87 592.615 354.097 592.644 354.31 592.703C354.53 592.754 354.72 592.835 354.882 592.945L354.739 594.562C354.687 594.76 354.566 594.859 354.376 594.859C354.273 594.859 354.119 594.841 353.914 594.804C353.708 594.76 353.488 594.738 353.254 594.738C352.909 594.738 352.605 594.789 352.341 594.892C352.077 594.987 351.838 595.134 351.626 595.332C351.42 595.523 351.237 595.761 351.076 596.047C350.914 596.326 350.764 596.645 350.625 597.004V604H348.48V592.824H349.712C349.946 592.824 350.104 592.868 350.185 592.956C350.273 593.037 350.335 593.183 350.372 593.396L350.504 594.969ZM360.891 592.648C361.712 592.648 362.453 592.784 363.113 593.055C363.78 593.319 364.345 593.704 364.807 594.21C365.276 594.709 365.636 595.314 365.885 596.025C366.134 596.729 366.259 597.521 366.259 598.401C366.259 599.281 366.134 600.077 365.885 600.788C365.636 601.499 365.276 602.104 364.807 602.603C364.345 603.102 363.78 603.487 363.113 603.758C362.453 604.022 361.712 604.154 360.891 604.154C360.062 604.154 359.314 604.022 358.647 603.758C357.987 603.487 357.422 603.102 356.953 602.603C356.484 602.104 356.121 601.499 355.864 600.788C355.615 600.077 355.49 599.281 355.49 598.401C355.49 597.521 355.615 596.729 355.864 596.025C356.121 595.314 356.484 594.709 356.953 594.21C357.422 593.704 357.987 593.319 358.647 593.055C359.314 592.784 360.062 592.648 360.891 592.648ZM360.891 602.482C361.947 602.482 362.735 602.126 363.256 601.415C363.777 600.704 364.037 599.703 364.037 598.412C364.037 597.121 363.777 596.12 363.256 595.409C362.735 594.69 361.947 594.331 360.891 594.331C359.82 594.331 359.021 594.69 358.493 595.409C357.972 596.12 357.712 597.121 357.712 598.412C357.712 599.703 357.972 600.704 358.493 601.415C359.021 602.126 359.82 602.482 360.891 602.482ZM377.948 592.824V604H376.661C376.368 604 376.177 603.857 376.089 603.571L375.935 602.449C375.693 602.706 375.44 602.94 375.176 603.153C374.912 603.366 374.63 603.549 374.329 603.703C374.029 603.85 373.71 603.963 373.372 604.044C373.035 604.132 372.672 604.176 372.283 604.176C371.667 604.176 371.125 604.073 370.655 603.868C370.193 603.663 369.805 603.377 369.489 603.01C369.174 602.636 368.936 602.189 368.774 601.668C368.613 601.147 368.532 600.572 368.532 599.941V592.824H370.688V599.941C370.688 600.74 370.872 601.364 371.238 601.811C371.605 602.251 372.166 602.471 372.921 602.471C373.471 602.471 373.985 602.343 374.461 602.086C374.938 601.822 375.385 601.463 375.803 601.008V592.824H377.948ZM382.956 594.375C383.198 594.118 383.451 593.884 383.715 593.671C383.979 593.458 384.257 593.279 384.551 593.132C384.851 592.978 385.17 592.861 385.508 592.78C385.852 592.692 386.219 592.648 386.608 592.648C387.224 592.648 387.763 592.751 388.225 592.956C388.694 593.161 389.086 593.451 389.402 593.825C389.717 594.192 389.955 594.635 390.117 595.156C390.278 595.677 390.359 596.252 390.359 596.883V604H388.203V596.883C388.203 596.084 388.019 595.464 387.653 595.024C387.286 594.577 386.725 594.353 385.97 594.353C385.42 594.353 384.903 594.485 384.419 594.749C383.942 595.006 383.498 595.358 383.088 595.805V604H380.943V592.824H382.23C382.53 592.824 382.717 592.967 382.791 593.253L382.956 594.375ZM400.458 595.53C400.106 595.068 399.725 594.745 399.314 594.562C398.911 594.379 398.456 594.287 397.95 594.287C396.967 594.287 396.205 594.643 395.662 595.354C395.127 596.058 394.859 597.088 394.859 598.445C394.859 599.156 394.918 599.765 395.035 600.271C395.16 600.77 395.336 601.18 395.563 601.503C395.798 601.818 396.084 602.053 396.421 602.207C396.758 602.354 397.14 602.427 397.565 602.427C398.188 602.427 398.727 602.288 399.182 602.009C399.637 601.73 400.062 601.338 400.458 600.832V595.53ZM402.614 587.764V604H401.316C401.015 604 400.828 603.857 400.755 603.571L400.568 602.284C400.091 602.849 399.549 603.303 398.94 603.648C398.339 603.985 397.642 604.154 396.85 604.154C396.212 604.154 395.633 604.029 395.112 603.78C394.599 603.531 394.159 603.168 393.792 602.691C393.425 602.207 393.143 601.609 392.945 600.898C392.747 600.187 392.648 599.369 392.648 598.445C392.648 597.616 392.758 596.846 392.978 596.135C393.198 595.424 393.517 594.808 393.935 594.287C394.353 593.766 394.859 593.359 395.453 593.066C396.047 592.765 396.718 592.615 397.466 592.615C398.141 592.615 398.713 592.725 399.182 592.945C399.659 593.165 400.084 593.477 400.458 593.88V587.764H402.614ZM420.38 592.824L414.176 607.245C414.11 607.406 414.022 607.531 413.912 607.619C413.802 607.707 413.641 607.751 413.428 607.751H411.833L413.879 603.296L409.292 592.824H411.162C411.346 592.824 411.489 592.868 411.591 592.956C411.694 593.044 411.767 593.143 411.811 593.253L414.649 599.963C414.708 600.132 414.763 600.304 414.814 600.48C414.873 600.649 414.921 600.817 414.957 600.986C415.009 600.81 415.064 600.638 415.122 600.469C415.181 600.293 415.243 600.121 415.309 599.952L418.048 593.253C418.1 593.128 418.18 593.026 418.29 592.945C418.4 592.864 418.525 592.824 418.664 592.824H420.38ZM426.461 592.648C427.283 592.648 428.023 592.784 428.683 593.055C429.351 593.319 429.915 593.704 430.377 594.21C430.847 594.709 431.206 595.314 431.455 596.025C431.705 596.729 431.829 597.521 431.829 598.401C431.829 599.281 431.705 600.077 431.455 600.788C431.206 601.499 430.847 602.104 430.377 602.603C429.915 603.102 429.351 603.487 428.683 603.758C428.023 604.022 427.283 604.154 426.461 604.154C425.633 604.154 424.885 604.022 424.217 603.758C423.557 603.487 422.993 603.102 422.523 602.603C422.054 602.104 421.691 601.499 421.434 600.788C421.185 600.077 421.06 599.281 421.06 598.401C421.06 597.521 421.185 596.729 421.434 596.025C421.691 595.314 422.054 594.709 422.523 594.21C422.993 593.704 423.557 593.319 424.217 593.055C424.885 592.784 425.633 592.648 426.461 592.648ZM426.461 602.482C427.517 602.482 428.306 602.126 428.826 601.415C429.347 600.704 429.607 599.703 429.607 598.412C429.607 597.121 429.347 596.12 428.826 595.409C428.306 594.69 427.517 594.331 426.461 594.331C425.391 594.331 424.591 594.69 424.063 595.409C423.543 596.12 423.282 597.121 423.282 598.412C423.282 599.703 423.543 600.704 424.063 601.415C424.591 602.126 425.391 602.482 426.461 602.482ZM443.519 592.824V604H442.232C441.938 604 441.748 603.857 441.66 603.571L441.506 602.449C441.264 602.706 441.011 602.94 440.747 603.153C440.483 603.366 440.2 603.549 439.9 603.703C439.599 603.85 439.28 603.963 438.943 604.044C438.605 604.132 438.242 604.176 437.854 604.176C437.238 604.176 436.695 604.073 436.226 603.868C435.764 603.663 435.375 603.377 435.06 603.01C434.744 602.636 434.506 602.189 434.345 601.668C434.183 601.147 434.103 600.572 434.103 599.941V592.824H436.259V599.941C436.259 600.74 436.442 601.364 436.809 601.811C437.175 602.251 437.736 602.471 438.492 602.471C439.042 602.471 439.555 602.343 440.032 602.086C440.508 601.822 440.956 601.463 441.374 601.008V592.824H443.519ZM446.161 602.713C446.161 602.515 446.198 602.328 446.271 602.152C446.344 601.976 446.443 601.822 446.568 601.69C446.7 601.558 446.854 601.455 447.03 601.382C447.206 601.301 447.397 601.261 447.602 601.261C447.8 601.261 447.987 601.301 448.163 601.382C448.339 601.455 448.493 601.558 448.625 601.69C448.757 601.822 448.86 601.976 448.933 602.152C449.014 602.328 449.054 602.515 449.054 602.713C449.054 602.918 449.014 603.109 448.933 603.285C448.86 603.461 448.757 603.615 448.625 603.747C448.493 603.879 448.339 603.982 448.163 604.055C447.987 604.128 447.8 604.165 447.602 604.165C447.397 604.165 447.206 604.128 447.03 604.055C446.854 603.982 446.7 603.879 446.568 603.747C446.443 603.615 446.344 603.461 446.271 603.285C446.198 603.109 446.161 602.918 446.161 602.713Z" fill="white"/>
<path d="M174.019 473.502V499H170.939C170.484 499 170.099 498.93 169.784 498.79C169.48 498.638 169.177 498.382 168.874 498.02L156.851 482.812C156.898 483.267 156.927 483.711 156.939 484.142C156.962 484.562 156.974 484.959 156.974 485.332V499H151.759V473.502H154.874C155.13 473.502 155.346 473.514 155.521 473.537C155.696 473.561 155.854 473.607 155.994 473.677C156.134 473.736 156.268 473.823 156.396 473.94C156.524 474.057 156.67 474.214 156.834 474.412L168.961 489.725C168.903 489.235 168.862 488.762 168.839 488.307C168.815 487.841 168.804 487.403 168.804 486.995V473.502H174.019ZM186.154 480.572C187.53 480.572 188.785 480.788 189.916 481.22C191.048 481.652 192.016 482.27 192.821 483.075C193.638 483.88 194.268 484.86 194.711 486.015C195.166 487.158 195.394 488.447 195.394 489.882C195.394 491.329 195.166 492.636 194.711 493.802C194.268 494.957 193.638 495.943 192.821 496.76C192.016 497.565 191.048 498.189 189.916 498.632C188.785 499.064 187.53 499.28 186.154 499.28C184.765 499.28 183.5 499.064 182.356 498.632C181.225 498.189 180.245 497.565 179.416 496.76C178.6 495.943 177.964 494.957 177.509 493.802C177.065 492.636 176.844 491.329 176.844 489.882C176.844 488.447 177.065 487.158 177.509 486.015C177.964 484.86 178.6 483.88 179.416 483.075C180.245 482.27 181.225 481.652 182.356 481.22C183.5 480.788 184.765 480.572 186.154 480.572ZM186.154 495.255C187.402 495.255 188.318 494.817 188.901 493.942C189.496 493.056 189.794 491.714 189.794 489.917C189.794 488.121 189.496 486.785 188.901 485.91C188.318 485.035 187.402 484.597 186.154 484.597C184.87 484.597 183.931 485.035 183.336 485.91C182.741 486.785 182.444 488.121 182.444 489.917C182.444 491.714 182.741 493.056 183.336 493.942C183.931 494.817 184.87 495.255 186.154 495.255ZM235.521 473.502V499H230.306V484.335C230.306 483.997 230.312 483.629 230.324 483.232C230.347 482.836 230.382 482.433 230.429 482.025L223.656 495.132C223.446 495.541 223.16 495.85 222.799 496.06C222.449 496.27 222.046 496.375 221.591 496.375H220.786C220.331 496.375 219.923 496.27 219.561 496.06C219.211 495.85 218.931 495.541 218.721 495.132L211.949 481.99C211.984 482.41 212.013 482.824 212.036 483.232C212.06 483.629 212.071 483.997 212.071 484.335V499H206.856V473.502H211.371C211.628 473.502 211.85 473.508 212.036 473.52C212.235 473.532 212.41 473.567 212.561 473.625C212.713 473.683 212.847 473.777 212.964 473.905C213.092 474.022 213.215 474.191 213.331 474.412L219.894 487.345C220.127 487.788 220.349 488.249 220.559 488.727C220.78 489.206 220.99 489.696 221.189 490.197C221.387 489.684 221.591 489.182 221.801 488.692C222.023 488.202 222.256 487.736 222.501 487.292L229.046 474.412C229.163 474.191 229.28 474.022 229.396 473.905C229.525 473.777 229.665 473.683 229.816 473.625C229.968 473.567 230.137 473.532 230.324 473.52C230.522 473.508 230.75 473.502 231.006 473.502H235.521ZM250.565 487.747C250.565 487.316 250.507 486.896 250.39 486.487C250.285 486.079 250.105 485.717 249.848 485.402C249.603 485.076 249.276 484.813 248.868 484.615C248.46 484.417 247.964 484.317 247.38 484.317C246.354 484.317 245.549 484.615 244.965 485.21C244.382 485.793 243.997 486.639 243.81 487.747H250.565ZM243.74 490.897C243.915 492.414 244.376 493.517 245.123 494.205C245.87 494.882 246.832 495.22 248.01 495.22C248.64 495.22 249.183 495.144 249.638 494.992C250.093 494.841 250.495 494.672 250.845 494.485C251.207 494.298 251.534 494.129 251.825 493.977C252.129 493.826 252.444 493.75 252.77 493.75C253.202 493.75 253.529 493.907 253.75 494.222L255.325 496.165C254.765 496.807 254.159 497.332 253.505 497.74C252.864 498.137 252.199 498.452 251.51 498.685C250.834 498.907 250.151 499.058 249.463 499.14C248.786 499.233 248.139 499.28 247.52 499.28C246.249 499.28 245.053 499.076 243.933 498.667C242.825 498.247 241.85 497.629 241.01 496.812C240.182 495.996 239.523 494.981 239.033 493.767C238.555 492.554 238.315 491.142 238.315 489.532C238.315 488.319 238.52 487.17 238.928 486.085C239.348 485 239.943 484.049 240.713 483.232C241.495 482.416 242.434 481.768 243.53 481.29C244.639 480.812 245.887 480.572 247.275 480.572C248.477 480.572 249.574 480.759 250.565 481.132C251.569 481.506 252.426 482.048 253.138 482.76C253.861 483.472 254.421 484.347 254.818 485.385C255.226 486.412 255.43 487.578 255.43 488.885C255.43 489.293 255.413 489.626 255.378 489.882C255.343 490.139 255.279 490.343 255.185 490.495C255.092 490.647 254.964 490.752 254.8 490.81C254.649 490.868 254.45 490.897 254.205 490.897H243.74ZM269.678 484.825C269.538 485.047 269.386 485.204 269.223 485.297C269.071 485.391 268.873 485.437 268.628 485.437C268.371 485.437 268.114 485.385 267.858 485.28C267.601 485.163 267.321 485.041 267.018 484.912C266.726 484.784 266.393 484.667 266.02 484.562C265.647 484.446 265.221 484.387 264.743 484.387C264.054 484.387 263.523 484.522 263.15 484.79C262.788 485.047 262.608 485.408 262.608 485.875C262.608 486.213 262.724 486.493 262.958 486.715C263.203 486.937 263.523 487.135 263.92 487.31C264.317 487.473 264.766 487.631 265.268 487.782C265.769 487.934 266.283 488.103 266.808 488.29C267.333 488.477 267.846 488.698 268.348 488.955C268.849 489.2 269.298 489.509 269.695 489.882C270.092 490.244 270.407 490.687 270.64 491.212C270.885 491.737 271.008 492.367 271.008 493.102C271.008 494.001 270.844 494.829 270.518 495.587C270.191 496.346 269.701 496.999 269.048 497.547C268.406 498.096 267.607 498.522 266.65 498.825C265.705 499.128 264.614 499.28 263.378 499.28C262.759 499.28 262.141 499.222 261.523 499.105C260.904 498.988 260.303 498.831 259.72 498.632C259.148 498.434 258.618 498.201 258.128 497.932C257.638 497.652 257.218 497.355 256.868 497.04L258.128 495.045C258.268 494.812 258.443 494.631 258.653 494.503C258.874 494.362 259.154 494.292 259.493 494.292C259.808 494.292 260.088 494.362 260.333 494.503C260.589 494.642 260.863 494.794 261.155 494.957C261.447 495.121 261.785 495.272 262.17 495.412C262.567 495.552 263.063 495.622 263.658 495.622C264.078 495.622 264.433 495.582 264.725 495.5C265.017 495.407 265.25 495.284 265.425 495.132C265.6 494.981 265.728 494.812 265.81 494.625C265.892 494.438 265.933 494.246 265.933 494.047C265.933 493.686 265.81 493.388 265.565 493.155C265.32 492.922 264.999 492.723 264.603 492.56C264.206 492.385 263.751 492.227 263.238 492.087C262.736 491.936 262.223 491.767 261.698 491.58C261.173 491.393 260.653 491.172 260.14 490.915C259.638 490.647 259.189 490.314 258.793 489.917C258.396 489.509 258.075 489.013 257.83 488.43C257.585 487.847 257.463 487.141 257.463 486.312C257.463 485.542 257.608 484.813 257.9 484.125C258.203 483.425 258.653 482.812 259.248 482.287C259.843 481.762 260.589 481.348 261.488 481.045C262.386 480.73 263.436 480.572 264.638 480.572C265.291 480.572 265.921 480.631 266.528 480.747C267.146 480.864 267.723 481.027 268.26 481.237C268.797 481.447 269.287 481.698 269.73 481.99C270.173 482.27 270.564 482.579 270.903 482.917L269.678 484.825ZM285.264 484.825C285.124 485.047 284.972 485.204 284.809 485.297C284.657 485.391 284.459 485.437 284.214 485.437C283.957 485.437 283.7 485.385 283.444 485.28C283.187 485.163 282.907 485.041 282.604 484.912C282.312 484.784 281.979 484.667 281.606 484.562C281.233 484.446 280.807 484.387 280.329 484.387C279.64 484.387 279.109 484.522 278.736 484.79C278.374 485.047 278.194 485.408 278.194 485.875C278.194 486.213 278.31 486.493 278.544 486.715C278.789 486.937 279.109 487.135 279.506 487.31C279.903 487.473 280.352 487.631 280.854 487.782C281.355 487.934 281.869 488.103 282.394 488.29C282.919 488.477 283.432 488.698 283.934 488.955C284.435 489.2 284.884 489.509 285.281 489.882C285.678 490.244 285.993 490.687 286.226 491.212C286.471 491.737 286.594 492.367 286.594 493.102C286.594 494.001 286.43 494.829 286.104 495.587C285.777 496.346 285.287 496.999 284.634 497.547C283.992 498.096 283.193 498.522 282.236 498.825C281.291 499.128 280.2 499.28 278.964 499.28C278.345 499.28 277.727 499.222 277.109 499.105C276.49 498.988 275.889 498.831 275.306 498.632C274.734 498.434 274.204 498.201 273.714 497.932C273.224 497.652 272.804 497.355 272.454 497.04L273.714 495.045C273.854 494.812 274.029 494.631 274.239 494.503C274.46 494.362 274.74 494.292 275.079 494.292C275.394 494.292 275.674 494.362 275.919 494.503C276.175 494.642 276.449 494.794 276.741 494.957C277.033 495.121 277.371 495.272 277.756 495.412C278.153 495.552 278.649 495.622 279.244 495.622C279.664 495.622 280.019 495.582 280.311 495.5C280.603 495.407 280.836 495.284 281.011 495.132C281.186 494.981 281.314 494.812 281.396 494.625C281.478 494.438 281.519 494.246 281.519 494.047C281.519 493.686 281.396 493.388 281.151 493.155C280.906 492.922 280.585 492.723 280.189 492.56C279.792 492.385 279.337 492.227 278.824 492.087C278.322 491.936 277.809 491.767 277.284 491.58C276.759 491.393 276.239 491.172 275.726 490.915C275.224 490.647 274.775 490.314 274.379 489.917C273.982 489.509 273.661 489.013 273.416 488.43C273.171 487.847 273.049 487.141 273.049 486.312C273.049 485.542 273.194 484.813 273.486 484.125C273.789 483.425 274.239 482.812 274.834 482.287C275.429 481.762 276.175 481.348 277.074 481.045C277.972 480.73 279.022 480.572 280.224 480.572C280.877 480.572 281.507 480.631 282.114 480.747C282.732 480.864 283.309 481.027 283.846 481.237C284.383 481.447 284.873 481.698 285.316 481.99C285.759 482.27 286.15 482.579 286.489 482.917L285.264 484.825ZM298.679 491.615C297.594 491.662 296.702 491.755 296.002 491.895C295.302 492.035 294.748 492.21 294.339 492.42C293.931 492.63 293.645 492.869 293.482 493.137C293.33 493.406 293.254 493.697 293.254 494.012C293.254 494.631 293.424 495.068 293.762 495.325C294.1 495.57 294.596 495.692 295.249 495.692C295.949 495.692 296.562 495.57 297.087 495.325C297.612 495.08 298.143 494.683 298.679 494.135V491.615ZM288.914 483.372C290.011 482.404 291.224 481.687 292.554 481.22C293.896 480.742 295.331 480.502 296.859 480.502C297.956 480.502 298.942 480.683 299.817 481.045C300.704 481.395 301.45 481.891 302.057 482.532C302.675 483.162 303.148 483.915 303.474 484.79C303.801 485.665 303.964 486.622 303.964 487.66V499H301.479C300.966 499 300.575 498.93 300.307 498.79C300.05 498.65 299.834 498.358 299.659 497.915L299.274 496.917C298.819 497.302 298.382 497.641 297.962 497.932C297.542 498.224 297.104 498.475 296.649 498.685C296.206 498.883 295.728 499.029 295.214 499.123C294.713 499.228 294.153 499.28 293.534 499.28C292.706 499.28 291.954 499.175 291.277 498.965C290.6 498.743 290.023 498.422 289.544 498.002C289.078 497.582 288.716 497.063 288.459 496.445C288.203 495.815 288.074 495.092 288.074 494.275C288.074 493.622 288.238 492.962 288.564 492.297C288.891 491.621 289.457 491.008 290.262 490.46C291.067 489.9 292.152 489.433 293.517 489.06C294.882 488.687 296.603 488.477 298.679 488.43V487.66C298.679 486.598 298.458 485.834 298.014 485.367C297.583 484.889 296.964 484.65 296.159 484.65C295.518 484.65 294.993 484.72 294.584 484.86C294.176 485 293.809 485.157 293.482 485.332C293.167 485.507 292.858 485.665 292.554 485.805C292.251 485.945 291.889 486.015 291.469 486.015C291.096 486.015 290.781 485.922 290.524 485.735C290.268 485.548 290.058 485.327 289.894 485.07L288.914 483.372ZM314.345 488.972C315.243 488.972 315.891 488.751 316.287 488.307C316.696 487.852 316.9 487.269 316.9 486.557C316.9 485.822 316.696 485.245 316.287 484.825C315.891 484.405 315.243 484.195 314.345 484.195C313.446 484.195 312.793 484.405 312.385 484.825C311.988 485.245 311.79 485.822 311.79 486.557C311.79 486.907 311.836 487.228 311.93 487.52C312.035 487.812 312.192 488.068 312.402 488.29C312.612 488.5 312.875 488.669 313.19 488.797C313.516 488.914 313.901 488.972 314.345 488.972ZM318.545 499.665C318.545 499.233 318.352 498.924 317.967 498.737C317.582 498.539 317.081 498.399 316.462 498.317C315.844 498.236 315.15 498.189 314.38 498.177C313.621 498.154 312.863 498.107 312.105 498.037C311.766 498.271 311.486 498.533 311.265 498.825C311.055 499.105 310.95 499.426 310.95 499.788C310.95 500.044 311.002 500.278 311.107 500.488C311.224 500.698 311.422 500.878 311.702 501.03C311.982 501.182 312.356 501.298 312.822 501.38C313.301 501.473 313.901 501.52 314.625 501.52C315.406 501.52 316.048 501.473 316.55 501.38C317.051 501.287 317.448 501.158 317.74 500.995C318.043 500.832 318.253 500.633 318.37 500.4C318.486 500.178 318.545 499.933 318.545 499.665ZM323.9 481.413V483.39C323.9 483.693 323.812 483.932 323.637 484.107C323.474 484.282 323.188 484.417 322.78 484.51L321.467 484.807C321.537 485.064 321.59 485.327 321.625 485.595C321.671 485.863 321.695 486.143 321.695 486.435C321.695 487.345 321.502 488.162 321.117 488.885C320.744 489.608 320.225 490.227 319.56 490.74C318.906 491.242 318.131 491.632 317.232 491.912C316.334 492.181 315.371 492.315 314.345 492.315C314.065 492.315 313.791 492.309 313.522 492.297C313.254 492.274 312.991 492.239 312.735 492.192C312.338 492.437 312.14 492.712 312.14 493.015C312.14 493.318 312.303 493.54 312.63 493.68C312.956 493.808 313.388 493.902 313.925 493.96C314.461 494.007 315.068 494.042 315.745 494.065C316.433 494.077 317.133 494.117 317.845 494.187C318.556 494.246 319.251 494.351 319.927 494.503C320.616 494.654 321.228 494.899 321.765 495.237C322.301 495.576 322.733 496.031 323.06 496.602C323.386 497.162 323.55 497.88 323.55 498.755C323.55 499.572 323.351 500.371 322.955 501.153C322.558 501.934 321.975 502.628 321.205 503.235C320.435 503.842 319.49 504.326 318.37 504.688C317.25 505.061 315.966 505.248 314.52 505.248C313.096 505.248 311.866 505.113 310.827 504.845C309.801 504.577 308.943 504.221 308.255 503.778C307.578 503.346 307.076 502.844 306.75 502.273C306.423 501.701 306.26 501.106 306.26 500.488C306.26 499.683 306.493 499.012 306.96 498.475C307.426 497.938 308.08 497.507 308.92 497.18C308.476 496.912 308.126 496.567 307.87 496.147C307.613 495.727 307.485 495.185 307.485 494.52C307.485 494.252 307.531 493.972 307.625 493.68C307.718 493.377 307.864 493.085 308.062 492.805C308.272 492.513 308.529 492.239 308.832 491.982C309.136 491.726 309.497 491.498 309.917 491.3C308.972 490.798 308.226 490.139 307.677 489.322C307.129 488.494 306.855 487.532 306.855 486.435C306.855 485.525 307.047 484.708 307.432 483.985C307.817 483.25 308.342 482.632 309.007 482.13C309.684 481.617 310.477 481.226 311.387 480.957C312.297 480.677 313.283 480.537 314.345 480.537C315.885 480.537 317.25 480.829 318.44 481.413H323.9ZM337.108 487.747C337.108 487.316 337.05 486.896 336.933 486.487C336.828 486.079 336.648 485.717 336.391 485.402C336.146 485.076 335.819 484.813 335.411 484.615C335.003 484.417 334.507 484.317 333.923 484.317C332.897 484.317 332.092 484.615 331.508 485.21C330.925 485.793 330.54 486.639 330.353 487.747H337.108ZM330.283 490.897C330.458 492.414 330.919 493.517 331.666 494.205C332.413 494.882 333.375 495.22 334.553 495.22C335.183 495.22 335.726 495.144 336.181 494.992C336.636 494.841 337.038 494.672 337.388 494.485C337.75 494.298 338.077 494.129 338.368 493.977C338.672 493.826 338.987 493.75 339.313 493.75C339.745 493.75 340.072 493.907 340.293 494.222L341.868 496.165C341.308 496.807 340.702 497.332 340.048 497.74C339.407 498.137 338.742 498.452 338.053 498.685C337.377 498.907 336.694 499.058 336.006 499.14C335.329 499.233 334.682 499.28 334.063 499.28C332.792 499.28 331.596 499.076 330.476 498.667C329.368 498.247 328.393 497.629 327.553 496.812C326.725 495.996 326.066 494.981 325.576 493.767C325.098 492.554 324.858 491.142 324.858 489.532C324.858 488.319 325.063 487.17 325.471 486.085C325.891 485 326.486 484.049 327.256 483.232C328.038 482.416 328.977 481.768 330.073 481.29C331.182 480.812 332.43 480.572 333.818 480.572C335.02 480.572 336.117 480.759 337.108 481.132C338.112 481.506 338.969 482.048 339.681 482.76C340.404 483.472 340.964 484.347 341.361 485.385C341.769 486.412 341.973 487.578 341.973 488.885C341.973 489.293 341.956 489.626 341.921 489.882C341.886 490.139 341.822 490.343 341.728 490.495C341.635 490.647 341.507 490.752 341.343 490.81C341.192 490.868 340.993 490.897 340.748 490.897H330.283ZM356.221 484.825C356.081 485.047 355.929 485.204 355.766 485.297C355.614 485.391 355.416 485.437 355.171 485.437C354.914 485.437 354.657 485.385 354.401 485.28C354.144 485.163 353.864 485.041 353.561 484.912C353.269 484.784 352.936 484.667 352.563 484.562C352.19 484.446 351.764 484.387 351.286 484.387C350.597 484.387 350.066 484.522 349.693 484.79C349.331 485.047 349.151 485.408 349.151 485.875C349.151 486.213 349.267 486.493 349.501 486.715C349.746 486.937 350.066 487.135 350.463 487.31C350.86 487.473 351.309 487.631 351.811 487.782C352.312 487.934 352.826 488.103 353.351 488.29C353.876 488.477 354.389 488.698 354.891 488.955C355.392 489.2 355.841 489.509 356.238 489.882C356.635 490.244 356.95 490.687 357.183 491.212C357.428 491.737 357.551 492.367 357.551 493.102C357.551 494.001 357.387 494.829 357.061 495.587C356.734 496.346 356.244 496.999 355.591 497.547C354.949 498.096 354.15 498.522 353.193 498.825C352.248 499.128 351.157 499.28 349.921 499.28C349.302 499.28 348.684 499.222 348.066 499.105C347.447 498.988 346.846 498.831 346.263 498.632C345.691 498.434 345.161 498.201 344.671 497.932C344.181 497.652 343.761 497.355 343.411 497.04L344.671 495.045C344.811 494.812 344.986 494.631 345.196 494.503C345.417 494.362 345.697 494.292 346.036 494.292C346.351 494.292 346.631 494.362 346.876 494.503C347.132 494.642 347.406 494.794 347.698 494.957C347.99 495.121 348.328 495.272 348.713 495.412C349.11 495.552 349.606 495.622 350.201 495.622C350.621 495.622 350.976 495.582 351.268 495.5C351.56 495.407 351.793 495.284 351.968 495.132C352.143 494.981 352.271 494.812 352.353 494.625C352.435 494.438 352.476 494.246 352.476 494.047C352.476 493.686 352.353 493.388 352.108 493.155C351.863 492.922 351.542 492.723 351.146 492.56C350.749 492.385 350.294 492.227 349.781 492.087C349.279 491.936 348.766 491.767 348.241 491.58C347.716 491.393 347.196 491.172 346.683 490.915C346.181 490.647 345.732 490.314 345.336 489.917C344.939 489.509 344.618 489.013 344.373 488.43C344.128 487.847 344.006 487.141 344.006 486.312C344.006 485.542 344.151 484.813 344.443 484.125C344.746 483.425 345.196 482.812 345.791 482.287C346.386 481.762 347.132 481.348 348.031 481.045C348.929 480.73 349.979 480.572 351.181 480.572C351.834 480.572 352.464 480.631 353.071 480.747C353.689 480.864 354.266 481.027 354.803 481.237C355.34 481.447 355.83 481.698 356.273 481.99C356.716 482.27 357.107 482.579 357.446 482.917L356.221 484.825ZM360.309 503.323C360.052 503.113 359.924 502.856 359.924 502.553C359.924 502.436 359.965 502.308 360.047 502.168C360.128 502.039 360.227 501.923 360.344 501.818C360.484 501.678 360.647 501.503 360.834 501.293C361.021 501.094 361.207 500.873 361.394 500.628C361.581 500.383 361.75 500.114 361.902 499.823C362.065 499.531 362.187 499.222 362.269 498.895C361.872 498.86 361.511 498.761 361.184 498.597C360.857 498.434 360.577 498.224 360.344 497.967C360.111 497.699 359.93 497.396 359.802 497.057C359.673 496.707 359.609 496.328 359.609 495.92C359.609 495.547 359.679 495.202 359.819 494.887C359.959 494.561 360.157 494.281 360.414 494.047C360.682 493.802 360.992 493.61 361.342 493.47C361.703 493.33 362.106 493.26 362.549 493.26C363.074 493.26 363.529 493.353 363.914 493.54C364.299 493.715 364.62 493.96 364.877 494.275C365.133 494.578 365.32 494.934 365.437 495.342C365.565 495.739 365.629 496.159 365.629 496.602C365.629 497.186 365.536 497.81 365.349 498.475C365.162 499.128 364.882 499.788 364.509 500.453C364.147 501.118 363.692 501.771 363.144 502.413C362.596 503.054 361.966 503.638 361.254 504.163L360.309 503.323ZM393.132 480.852L383.437 503.708C383.273 504.069 383.075 504.332 382.842 504.495C382.608 504.67 382.235 504.758 381.722 504.758H377.662L381.162 497.407L373.917 480.852H378.712C379.132 480.852 379.452 480.946 379.674 481.132C379.907 481.319 380.077 481.541 380.182 481.797L383.157 489.62C383.437 490.332 383.664 491.061 383.839 491.807C383.967 491.434 384.096 491.061 384.224 490.687C384.352 490.314 384.487 489.947 384.627 489.585L387.322 481.797C387.427 481.529 387.613 481.307 387.882 481.132C388.15 480.946 388.442 480.852 388.757 480.852H393.132ZM405.399 487.747C405.399 487.316 405.341 486.896 405.224 486.487C405.119 486.079 404.939 485.717 404.682 485.402C404.437 485.076 404.11 484.813 403.702 484.615C403.294 484.417 402.798 484.317 402.214 484.317C401.188 484.317 400.383 484.615 399.799 485.21C399.216 485.793 398.831 486.639 398.644 487.747H405.399ZM398.574 490.897C398.749 492.414 399.21 493.517 399.957 494.205C400.704 494.882 401.666 495.22 402.844 495.22C403.474 495.22 404.017 495.144 404.472 494.992C404.927 494.841 405.329 494.672 405.679 494.485C406.041 494.298 406.368 494.129 406.659 493.977C406.963 493.826 407.278 493.75 407.604 493.75C408.036 493.75 408.363 493.907 408.584 494.222L410.159 496.165C409.599 496.807 408.993 497.332 408.339 497.74C407.698 498.137 407.033 498.452 406.344 498.685C405.668 498.907 404.985 499.058 404.297 499.14C403.62 499.233 402.973 499.28 402.354 499.28C401.083 499.28 399.887 499.076 398.767 498.667C397.659 498.247 396.684 497.629 395.844 496.812C395.016 495.996 394.357 494.981 393.867 493.767C393.389 492.554 393.149 491.142 393.149 489.532C393.149 488.319 393.354 487.17 393.762 486.085C394.182 485 394.777 484.049 395.547 483.232C396.329 482.416 397.268 481.768 398.364 481.29C399.473 480.812 400.721 480.572 402.109 480.572C403.311 480.572 404.408 480.759 405.399 481.132C406.403 481.506 407.26 482.048 407.972 482.76C408.695 483.472 409.255 484.347 409.652 485.385C410.06 486.412 410.264 487.578 410.264 488.885C410.264 489.293 410.247 489.626 410.212 489.882C410.177 490.139 410.113 490.343 410.019 490.495C409.926 490.647 409.798 490.752 409.634 490.81C409.483 490.868 409.284 490.897 409.039 490.897H398.574ZM419.232 499.28C418.369 499.28 417.605 499.158 416.94 498.912C416.287 498.656 415.732 498.3 415.277 497.845C414.834 497.378 414.496 496.818 414.262 496.165C414.029 495.512 413.912 494.782 413.912 493.977V484.597H412.372C412.092 484.597 411.853 484.51 411.655 484.335C411.457 484.148 411.357 483.88 411.357 483.53V481.413L414.245 480.852L415.312 476.425C415.452 475.865 415.849 475.585 416.502 475.585H419.337V480.887H423.835V484.597H419.337V493.61C419.337 494.03 419.437 494.38 419.635 494.66C419.845 494.928 420.142 495.062 420.527 495.062C420.726 495.062 420.889 495.045 421.017 495.01C421.157 494.963 421.274 494.917 421.367 494.87C421.472 494.812 421.566 494.765 421.647 494.73C421.741 494.683 421.846 494.66 421.962 494.66C422.126 494.66 422.254 494.701 422.347 494.782C422.452 494.852 422.557 494.969 422.662 495.132L424.307 497.705C423.607 498.23 422.82 498.627 421.945 498.895C421.07 499.152 420.166 499.28 419.232 499.28ZM425.437 496.252C425.437 495.832 425.513 495.442 425.665 495.08C425.828 494.718 426.044 494.403 426.312 494.135C426.592 493.867 426.919 493.657 427.292 493.505C427.666 493.342 428.074 493.26 428.517 493.26C428.949 493.26 429.352 493.342 429.725 493.505C430.098 493.657 430.425 493.867 430.705 494.135C430.985 494.403 431.201 494.718 431.352 495.08C431.516 495.442 431.597 495.832 431.597 496.252C431.597 496.672 431.516 497.069 431.352 497.442C431.201 497.804 430.985 498.119 430.705 498.387C430.425 498.656 430.098 498.866 429.725 499.018C429.352 499.169 428.949 499.245 428.517 499.245C428.074 499.245 427.666 499.169 427.292 499.018C426.919 498.866 426.592 498.656 426.312 498.387C426.044 498.119 425.828 497.804 425.665 497.442C425.513 497.069 425.437 496.672 425.437 496.252Z" fill="white"/>
</g>
<defs>
<clipPath id="clip0">
<rect width="584" height="713" fill="white"/>
</clipPath>
</defs>
</svg>
