<svg width="584" height="713" viewBox="0 0 584 713" fill="none" xmlns="http://www.w3.org/2000/svg">
<g clip-path="url(#clip0)">
<circle cx="339.5" cy="288.5" r="66.5" fill="#474B53" stroke="#808080" stroke-width="4"/>
<circle cx="311.5" cy="288.5" r="6.5" fill="#808080"/>
<circle cx="339.5" cy="288.5" r="6.5" fill="#808080"/>
<circle cx="367.5" cy="288.5" r="6.5" fill="#808080"/>
<path d="M394.433 351.57L376.439 345.307L390.861 332.856L394.433 351.57Z" fill="#474B53" stroke="#808080" stroke-width="4" stroke-linecap="round"/>
<path d="M372.306 340.157L386.752 327.734L390.288 346.455L372.306 340.157Z" fill="#474B53" stroke="#474B53" stroke-width="4" stroke-linecap="round"/>
<circle cx="245.5" cy="249.5" r="66.5" fill="#474B53" stroke="#808080" stroke-width="4"/>
<circle cx="214.5" cy="243.5" r="6.5" fill="#808080"/>
<circle cx="274.5" cy="243.5" r="6.5" fill="#808080"/>
<path d="M229 267.5C241.108 258.482 247.891 258.626 260 267.5" stroke="#808080" stroke-width="7" stroke-linecap="round" stroke-linejoin="round"/>
<path d="M191.317 314.812L194.589 296.042L209.208 308.26L191.317 314.812Z" fill="#474B53" stroke="#808080" stroke-width="4" stroke-linecap="round"/>
<path d="M196.189 309.684L199.461 290.914L214.08 303.132L196.189 309.684Z" fill="#474B53" stroke="#474B53" stroke-width="4" stroke-linecap="round"/>
<path d="M122.942 511.015C124.482 511.015 125.591 510.647 126.267 509.912C126.944 509.177 127.282 508.151 127.282 506.832C127.282 506.249 127.195 505.718 127.02 505.24C126.845 504.762 126.577 504.353 126.215 504.015C125.865 503.665 125.416 503.397 124.867 503.21C124.331 503.023 123.689 502.93 122.942 502.93H119.862V511.015H122.942ZM122.942 498.502C124.739 498.502 126.279 498.718 127.562 499.15C128.857 499.57 129.919 500.153 130.747 500.9C131.587 501.647 132.206 502.527 132.602 503.542C132.999 504.557 133.197 505.654 133.197 506.832C133.197 508.104 132.993 509.271 132.585 510.332C132.177 511.394 131.552 512.304 130.712 513.062C129.872 513.821 128.805 514.416 127.51 514.847C126.227 515.267 124.704 515.477 122.942 515.477H119.862V524H113.947V498.502H122.942ZM140.993 497.802V524H135.568V497.802H140.993ZM155.948 512.747C155.948 512.316 155.889 511.896 155.773 511.487C155.668 511.079 155.487 510.717 155.23 510.402C154.985 510.076 154.659 509.813 154.25 509.615C153.842 509.417 153.346 509.317 152.763 509.317C151.736 509.317 150.931 509.615 150.348 510.21C149.764 510.793 149.379 511.639 149.193 512.747H155.948ZM149.123 515.897C149.298 517.414 149.759 518.517 150.505 519.205C151.252 519.882 152.214 520.22 153.393 520.22C154.023 520.22 154.565 520.144 155.02 519.992C155.475 519.841 155.878 519.672 156.228 519.485C156.589 519.298 156.916 519.129 157.208 518.977C157.511 518.826 157.826 518.75 158.153 518.75C158.584 518.75 158.911 518.907 159.133 519.222L160.708 521.165C160.148 521.807 159.541 522.332 158.888 522.74C158.246 523.137 157.581 523.452 156.893 523.685C156.216 523.907 155.534 524.058 154.845 524.14C154.169 524.233 153.521 524.28 152.903 524.28C151.631 524.28 150.435 524.076 149.315 523.667C148.207 523.247 147.233 522.629 146.393 521.812C145.564 520.996 144.905 519.981 144.415 518.767C143.937 517.554 143.698 516.142 143.698 514.532C143.698 513.319 143.902 512.17 144.31 511.085C144.73 510 145.325 509.049 146.095 508.232C146.877 507.416 147.816 506.768 148.913 506.29C150.021 505.812 151.269 505.572 152.658 505.572C153.859 505.572 154.956 505.759 155.948 506.132C156.951 506.506 157.809 507.048 158.52 507.76C159.244 508.472 159.804 509.347 160.2 510.385C160.609 511.412 160.813 512.578 160.813 513.885C160.813 514.293 160.795 514.626 160.76 514.882C160.725 515.139 160.661 515.343 160.568 515.495C160.474 515.647 160.346 515.752 160.183 515.81C160.031 515.868 159.833 515.897 159.588 515.897H149.123ZM172.89 516.615C171.805 516.662 170.912 516.755 170.212 516.895C169.512 517.035 168.958 517.21 168.55 517.42C168.142 517.63 167.856 517.869 167.692 518.137C167.541 518.406 167.465 518.697 167.465 519.012C167.465 519.631 167.634 520.068 167.972 520.325C168.311 520.57 168.807 520.692 169.46 520.692C170.16 520.692 170.772 520.57 171.297 520.325C171.822 520.08 172.353 519.683 172.89 519.135V516.615ZM163.125 508.372C164.222 507.404 165.435 506.687 166.765 506.22C168.107 505.742 169.542 505.502 171.07 505.502C172.167 505.502 173.152 505.683 174.027 506.045C174.914 506.395 175.661 506.891 176.267 507.532C176.886 508.162 177.358 508.915 177.685 509.79C178.012 510.665 178.175 511.622 178.175 512.66V524H175.69C175.177 524 174.786 523.93 174.517 523.79C174.261 523.65 174.045 523.358 173.87 522.915L173.485 521.917C173.03 522.302 172.592 522.641 172.172 522.932C171.752 523.224 171.315 523.475 170.86 523.685C170.417 523.883 169.938 524.029 169.425 524.123C168.923 524.228 168.363 524.28 167.745 524.28C166.917 524.28 166.164 524.175 165.487 523.965C164.811 523.743 164.233 523.422 163.755 523.002C163.288 522.582 162.927 522.063 162.67 521.445C162.413 520.815 162.285 520.092 162.285 519.275C162.285 518.622 162.448 517.962 162.775 517.297C163.102 516.621 163.667 516.008 164.472 515.46C165.277 514.9 166.362 514.433 167.727 514.06C169.092 513.687 170.813 513.477 172.89 513.43V512.66C172.89 511.598 172.668 510.834 172.225 510.367C171.793 509.889 171.175 509.65 170.37 509.65C169.728 509.65 169.203 509.72 168.795 509.86C168.387 510 168.019 510.157 167.692 510.332C167.377 510.507 167.068 510.665 166.765 510.805C166.462 510.945 166.1 511.015 165.68 511.015C165.307 511.015 164.992 510.922 164.735 510.735C164.478 510.548 164.268 510.327 164.105 510.07L163.125 508.372ZM193.175 509.825C193.035 510.047 192.884 510.204 192.72 510.297C192.569 510.391 192.37 510.437 192.125 510.437C191.869 510.437 191.612 510.385 191.355 510.28C191.099 510.163 190.819 510.041 190.515 509.912C190.224 509.784 189.891 509.667 189.518 509.562C189.144 509.446 188.719 509.387 188.24 509.387C187.552 509.387 187.021 509.522 186.648 509.79C186.286 510.047 186.105 510.408 186.105 510.875C186.105 511.213 186.222 511.493 186.455 511.715C186.7 511.937 187.021 512.135 187.418 512.31C187.814 512.473 188.264 512.631 188.765 512.782C189.267 512.934 189.78 513.103 190.305 513.29C190.83 513.477 191.344 513.698 191.845 513.955C192.347 514.2 192.796 514.509 193.193 514.882C193.589 515.244 193.904 515.687 194.138 516.212C194.383 516.737 194.505 517.367 194.505 518.102C194.505 519.001 194.342 519.829 194.015 520.587C193.689 521.346 193.199 521.999 192.545 522.547C191.904 523.096 191.104 523.522 190.148 523.825C189.203 524.128 188.112 524.28 186.875 524.28C186.257 524.28 185.639 524.222 185.02 524.105C184.402 523.988 183.801 523.831 183.218 523.632C182.646 523.434 182.115 523.201 181.625 522.932C181.135 522.652 180.715 522.355 180.365 522.04L181.625 520.045C181.765 519.812 181.94 519.631 182.15 519.503C182.372 519.362 182.652 519.292 182.99 519.292C183.305 519.292 183.585 519.362 183.83 519.503C184.087 519.642 184.361 519.794 184.653 519.957C184.944 520.121 185.283 520.272 185.668 520.412C186.064 520.552 186.56 520.622 187.155 520.622C187.575 520.622 187.931 520.582 188.223 520.5C188.514 520.407 188.748 520.284 188.923 520.132C189.098 519.981 189.226 519.812 189.308 519.625C189.389 519.438 189.43 519.246 189.43 519.047C189.43 518.686 189.308 518.388 189.063 518.155C188.818 517.922 188.497 517.723 188.1 517.56C187.704 517.385 187.249 517.227 186.735 517.087C186.234 516.936 185.72 516.767 185.195 516.58C184.67 516.393 184.151 516.172 183.638 515.915C183.136 515.647 182.687 515.314 182.29 514.917C181.894 514.509 181.573 514.013 181.328 513.43C181.083 512.847 180.96 512.141 180.96 511.312C180.96 510.542 181.106 509.813 181.398 509.125C181.701 508.425 182.15 507.812 182.745 507.287C183.34 506.762 184.087 506.348 184.985 506.045C185.884 505.73 186.934 505.572 188.135 505.572C188.789 505.572 189.419 505.631 190.025 505.747C190.644 505.864 191.221 506.027 191.758 506.237C192.294 506.447 192.784 506.698 193.228 506.99C193.671 507.27 194.062 507.579 194.4 507.917L193.175 509.825ZM208.516 512.747C208.516 512.316 208.458 511.896 208.341 511.487C208.236 511.079 208.055 510.717 207.799 510.402C207.554 510.076 207.227 509.813 206.819 509.615C206.41 509.417 205.914 509.317 205.331 509.317C204.304 509.317 203.499 509.615 202.916 510.21C202.333 510.793 201.948 511.639 201.761 512.747H208.516ZM201.691 515.897C201.866 517.414 202.327 518.517 203.074 519.205C203.82 519.882 204.783 520.22 205.961 520.22C206.591 520.22 207.134 520.144 207.589 519.992C208.044 519.841 208.446 519.672 208.796 519.485C209.158 519.298 209.484 519.129 209.776 518.977C210.079 518.826 210.394 518.75 210.721 518.75C211.153 518.75 211.479 518.907 211.701 519.222L213.276 521.165C212.716 521.807 212.109 522.332 211.456 522.74C210.814 523.137 210.149 523.452 209.461 523.685C208.784 523.907 208.102 524.058 207.414 524.14C206.737 524.233 206.089 524.28 205.471 524.28C204.199 524.28 203.004 524.076 201.884 523.667C200.775 523.247 199.801 522.629 198.961 521.812C198.133 520.996 197.474 519.981 196.984 518.767C196.505 517.554 196.266 516.142 196.266 514.532C196.266 513.319 196.47 512.17 196.879 511.085C197.299 510 197.894 509.049 198.664 508.232C199.445 507.416 200.384 506.768 201.481 506.29C202.589 505.812 203.838 505.572 205.226 505.572C206.428 505.572 207.524 505.759 208.516 506.132C209.519 506.506 210.377 507.048 211.089 507.76C211.812 508.472 212.372 509.347 212.769 510.385C213.177 511.412 213.381 512.578 213.381 513.885C213.381 514.293 213.364 514.626 213.329 514.882C213.294 515.139 213.229 515.343 213.136 515.495C213.043 515.647 212.914 515.752 212.751 515.81C212.599 515.868 212.401 515.897 212.156 515.897H201.691ZM235.729 509.825C235.589 510.047 235.437 510.204 235.274 510.297C235.122 510.391 234.924 510.437 234.679 510.437C234.422 510.437 234.166 510.385 233.909 510.28C233.652 510.163 233.372 510.041 233.069 509.912C232.777 509.784 232.445 509.667 232.071 509.562C231.698 509.446 231.272 509.387 230.794 509.387C230.106 509.387 229.575 509.522 229.201 509.79C228.84 510.047 228.659 510.408 228.659 510.875C228.659 511.213 228.776 511.493 229.009 511.715C229.254 511.937 229.575 512.135 229.971 512.31C230.368 512.473 230.817 512.631 231.319 512.782C231.821 512.934 232.334 513.103 232.859 513.29C233.384 513.477 233.897 513.698 234.399 513.955C234.901 514.2 235.35 514.509 235.746 514.882C236.143 515.244 236.458 515.687 236.691 516.212C236.936 516.737 237.059 517.367 237.059 518.102C237.059 519.001 236.896 519.829 236.569 520.587C236.242 521.346 235.752 521.999 235.099 522.547C234.457 523.096 233.658 523.522 232.701 523.825C231.756 524.128 230.666 524.28 229.429 524.28C228.811 524.28 228.192 524.222 227.574 524.105C226.956 523.988 226.355 523.831 225.771 523.632C225.2 523.434 224.669 523.201 224.179 522.932C223.689 522.652 223.269 522.355 222.919 522.04L224.179 520.045C224.319 519.812 224.494 519.631 224.704 519.503C224.926 519.362 225.206 519.292 225.544 519.292C225.859 519.292 226.139 519.362 226.384 519.503C226.641 519.642 226.915 519.794 227.206 519.957C227.498 520.121 227.836 520.272 228.221 520.412C228.618 520.552 229.114 520.622 229.709 520.622C230.129 520.622 230.485 520.582 230.776 520.5C231.068 520.407 231.301 520.284 231.476 520.132C231.651 519.981 231.78 519.812 231.861 519.625C231.943 519.438 231.984 519.246 231.984 519.047C231.984 518.686 231.861 518.388 231.616 518.155C231.371 517.922 231.051 517.723 230.654 517.56C230.257 517.385 229.802 517.227 229.289 517.087C228.787 516.936 228.274 516.767 227.749 516.58C227.224 516.393 226.705 516.172 226.191 515.915C225.69 515.647 225.241 515.314 224.844 514.917C224.447 514.509 224.126 514.013 223.881 513.43C223.636 512.847 223.514 512.141 223.514 511.312C223.514 510.542 223.66 509.813 223.951 509.125C224.255 508.425 224.704 507.812 225.299 507.287C225.894 506.762 226.641 506.348 227.539 506.045C228.437 505.73 229.487 505.572 230.689 505.572C231.342 505.572 231.972 505.631 232.579 505.747C233.197 505.864 233.775 506.027 234.311 506.237C234.848 506.447 235.338 506.698 235.781 506.99C236.225 507.27 236.616 507.579 236.954 507.917L235.729 509.825ZM251.07 512.747C251.07 512.316 251.011 511.896 250.895 511.487C250.79 511.079 250.609 510.717 250.352 510.402C250.107 510.076 249.781 509.813 249.372 509.615C248.964 509.417 248.468 509.317 247.885 509.317C246.858 509.317 246.053 509.615 245.47 510.21C244.886 510.793 244.501 511.639 244.315 512.747H251.07ZM244.245 515.897C244.42 517.414 244.881 518.517 245.627 519.205C246.374 519.882 247.336 520.22 248.515 520.22C249.145 520.22 249.687 520.144 250.142 519.992C250.597 519.841 251 519.672 251.35 519.485C251.711 519.298 252.038 519.129 252.33 518.977C252.633 518.826 252.948 518.75 253.275 518.75C253.706 518.75 254.033 518.907 254.255 519.222L255.83 521.165C255.27 521.807 254.663 522.332 254.01 522.74C253.368 523.137 252.703 523.452 252.015 523.685C251.338 523.907 250.656 524.058 249.967 524.14C249.291 524.233 248.643 524.28 248.025 524.28C246.753 524.28 245.557 524.076 244.437 523.667C243.329 523.247 242.355 522.629 241.515 521.812C240.686 520.996 240.027 519.981 239.537 518.767C239.059 517.554 238.82 516.142 238.82 514.532C238.82 513.319 239.024 512.17 239.432 511.085C239.852 510 240.447 509.049 241.217 508.232C241.999 507.416 242.938 506.768 244.035 506.29C245.143 505.812 246.391 505.572 247.78 505.572C248.981 505.572 250.078 505.759 251.07 506.132C252.073 506.506 252.931 507.048 253.642 507.76C254.366 508.472 254.926 509.347 255.322 510.385C255.731 511.412 255.935 512.578 255.935 513.885C255.935 514.293 255.917 514.626 255.882 514.882C255.847 515.139 255.783 515.343 255.69 515.495C255.596 515.647 255.468 515.752 255.305 515.81C255.153 515.868 254.955 515.897 254.71 515.897H244.245ZM264.075 497.802V524H258.65V497.802H264.075ZM279.029 512.747C279.029 512.316 278.97 511.896 278.854 511.487C278.749 511.079 278.568 510.717 278.311 510.402C278.066 510.076 277.74 509.813 277.331 509.615C276.923 509.417 276.427 509.317 275.844 509.317C274.817 509.317 274.012 509.615 273.429 510.21C272.845 510.793 272.46 511.639 272.274 512.747H279.029ZM272.204 515.897C272.379 517.414 272.84 518.517 273.586 519.205C274.333 519.882 275.295 520.22 276.474 520.22C277.104 520.22 277.646 520.144 278.101 519.992C278.556 519.841 278.959 519.672 279.309 519.485C279.67 519.298 279.997 519.129 280.289 518.977C280.592 518.826 280.907 518.75 281.234 518.75C281.665 518.75 281.992 518.907 282.214 519.222L283.789 521.165C283.229 521.807 282.622 522.332 281.969 522.74C281.327 523.137 280.662 523.452 279.974 523.685C279.297 523.907 278.615 524.058 277.926 524.14C277.25 524.233 276.602 524.28 275.984 524.28C274.712 524.28 273.516 524.076 272.396 523.667C271.288 523.247 270.314 522.629 269.474 521.812C268.645 520.996 267.986 519.981 267.496 518.767C267.018 517.554 266.779 516.142 266.779 514.532C266.779 513.319 266.983 512.17 267.391 511.085C267.811 510 268.406 509.049 269.176 508.232C269.958 507.416 270.897 506.768 271.994 506.29C273.102 505.812 274.35 505.572 275.739 505.572C276.94 505.572 278.037 505.759 279.029 506.132C280.032 506.506 280.89 507.048 281.601 507.76C282.325 508.472 282.885 509.347 283.281 510.385C283.69 511.412 283.894 512.578 283.894 513.885C283.894 514.293 283.876 514.626 283.841 514.882C283.806 515.139 283.742 515.343 283.649 515.495C283.555 515.647 283.427 515.752 283.264 515.81C283.112 515.868 282.914 515.897 282.669 515.897H272.204ZM299.943 510.157C299.78 510.356 299.623 510.513 299.471 510.63C299.319 510.747 299.103 510.805 298.823 510.805C298.555 510.805 298.31 510.741 298.088 510.612C297.878 510.484 297.639 510.344 297.371 510.192C297.103 510.029 296.788 509.883 296.426 509.755C296.064 509.627 295.615 509.562 295.078 509.562C294.413 509.562 293.836 509.685 293.346 509.93C292.868 510.175 292.471 510.525 292.156 510.98C291.841 511.435 291.608 511.995 291.456 512.66C291.304 513.313 291.228 514.054 291.228 514.882C291.228 516.621 291.561 517.957 292.226 518.89C292.903 519.823 293.83 520.29 295.008 520.29C295.638 520.29 296.134 520.214 296.496 520.062C296.869 519.899 297.184 519.724 297.441 519.537C297.698 519.339 297.931 519.158 298.141 518.995C298.363 518.832 298.637 518.75 298.963 518.75C299.395 518.75 299.722 518.907 299.943 519.222L301.518 521.165C300.958 521.807 300.369 522.332 299.751 522.74C299.133 523.137 298.497 523.452 297.843 523.685C297.202 523.907 296.554 524.058 295.901 524.14C295.248 524.233 294.612 524.28 293.993 524.28C292.885 524.28 291.823 524.07 290.808 523.65C289.805 523.23 288.918 522.623 288.148 521.83C287.39 521.025 286.783 520.039 286.328 518.872C285.885 517.706 285.663 516.376 285.663 514.882C285.663 513.576 285.856 512.357 286.241 511.225C286.638 510.082 287.215 509.096 287.973 508.267C288.743 507.427 289.688 506.768 290.808 506.29C291.94 505.812 293.247 505.572 294.728 505.572C296.152 505.572 297.4 505.8 298.473 506.255C299.547 506.71 300.515 507.375 301.378 508.25L299.943 510.157ZM310.122 524.28C309.259 524.28 308.495 524.158 307.83 523.912C307.177 523.656 306.622 523.3 306.167 522.845C305.724 522.378 305.386 521.818 305.152 521.165C304.919 520.512 304.802 519.782 304.802 518.977V509.597H303.262C302.982 509.597 302.743 509.51 302.545 509.335C302.347 509.148 302.247 508.88 302.247 508.53V506.413L305.135 505.852L306.202 501.425C306.342 500.865 306.739 500.585 307.392 500.585H310.227V505.887H314.725V509.597H310.227V518.61C310.227 519.03 310.327 519.38 310.525 519.66C310.735 519.928 311.032 520.062 311.417 520.062C311.616 520.062 311.779 520.045 311.907 520.01C312.047 519.963 312.164 519.917 312.257 519.87C312.362 519.812 312.456 519.765 312.537 519.73C312.631 519.683 312.736 519.66 312.852 519.66C313.016 519.66 313.144 519.701 313.237 519.782C313.342 519.852 313.447 519.969 313.552 520.132L315.197 522.705C314.497 523.23 313.71 523.627 312.835 523.895C311.96 524.152 311.056 524.28 310.122 524.28ZM334.526 516.615C333.441 516.662 332.548 516.755 331.848 516.895C331.148 517.035 330.594 517.21 330.186 517.42C329.777 517.63 329.492 517.869 329.328 518.137C329.177 518.406 329.101 518.697 329.101 519.012C329.101 519.631 329.27 520.068 329.608 520.325C329.947 520.57 330.442 520.692 331.096 520.692C331.796 520.692 332.408 520.57 332.933 520.325C333.458 520.08 333.989 519.683 334.526 519.135V516.615ZM324.761 508.372C325.857 507.404 327.071 506.687 328.401 506.22C329.742 505.742 331.177 505.502 332.706 505.502C333.802 505.502 334.788 505.683 335.663 506.045C336.55 506.395 337.297 506.891 337.903 507.532C338.522 508.162 338.994 508.915 339.321 509.79C339.647 510.665 339.811 511.622 339.811 512.66V524H337.326C336.812 524 336.422 523.93 336.153 523.79C335.897 523.65 335.681 523.358 335.506 522.915L335.121 521.917C334.666 522.302 334.228 522.641 333.808 522.932C333.388 523.224 332.951 523.475 332.496 523.685C332.052 523.883 331.574 524.029 331.061 524.123C330.559 524.228 329.999 524.28 329.381 524.28C328.552 524.28 327.8 524.175 327.123 523.965C326.447 523.743 325.869 523.422 325.391 523.002C324.924 522.582 324.562 522.063 324.306 521.445C324.049 520.815 323.921 520.092 323.921 519.275C323.921 518.622 324.084 517.962 324.411 517.297C324.737 516.621 325.303 516.008 326.108 515.46C326.913 514.9 327.998 514.433 329.363 514.06C330.728 513.687 332.449 513.477 334.526 513.43V512.66C334.526 511.598 334.304 510.834 333.861 510.367C333.429 509.889 332.811 509.65 332.006 509.65C331.364 509.65 330.839 509.72 330.431 509.86C330.022 510 329.655 510.157 329.328 510.332C329.013 510.507 328.704 510.665 328.401 510.805C328.097 510.945 327.736 511.015 327.316 511.015C326.942 511.015 326.627 510.922 326.371 510.735C326.114 510.548 325.904 510.327 325.741 510.07L324.761 508.372ZM364.714 510.157C364.551 510.356 364.393 510.513 364.242 510.63C364.09 510.747 363.874 510.805 363.594 510.805C363.326 510.805 363.081 510.741 362.859 510.612C362.649 510.484 362.41 510.344 362.142 510.192C361.873 510.029 361.558 509.883 361.197 509.755C360.835 509.627 360.386 509.562 359.849 509.562C359.184 509.562 358.607 509.685 358.117 509.93C357.638 510.175 357.242 510.525 356.927 510.98C356.612 511.435 356.378 511.995 356.227 512.66C356.075 513.313 355.999 514.054 355.999 514.882C355.999 516.621 356.332 517.957 356.997 518.89C357.673 519.823 358.601 520.29 359.779 520.29C360.409 520.29 360.905 520.214 361.267 520.062C361.64 519.899 361.955 519.724 362.212 519.537C362.468 519.339 362.702 519.158 362.912 518.995C363.133 518.832 363.407 518.75 363.734 518.75C364.166 518.75 364.492 518.907 364.714 519.222L366.289 521.165C365.729 521.807 365.14 522.332 364.522 522.74C363.903 523.137 363.267 523.452 362.614 523.685C361.972 523.907 361.325 524.058 360.672 524.14C360.018 524.233 359.382 524.28 358.764 524.28C357.656 524.28 356.594 524.07 355.579 523.65C354.576 523.23 353.689 522.623 352.919 521.83C352.161 521.025 351.554 520.039 351.099 518.872C350.656 517.706 350.434 516.376 350.434 514.882C350.434 513.576 350.627 512.357 351.012 511.225C351.408 510.082 351.986 509.096 352.744 508.267C353.514 507.427 354.459 506.768 355.579 506.29C356.711 505.812 358.017 505.572 359.499 505.572C360.922 505.572 362.171 505.8 363.244 506.255C364.317 506.71 365.286 507.375 366.149 508.25L364.714 510.157ZM373.825 507.445C374.479 506.885 375.185 506.436 375.943 506.097C376.713 505.747 377.629 505.572 378.69 505.572C379.682 505.572 380.557 505.747 381.315 506.097C382.085 506.436 382.733 506.914 383.258 507.532C383.783 508.139 384.18 508.868 384.448 509.72C384.716 510.56 384.85 511.476 384.85 512.467V524H379.425V512.467C379.425 511.581 379.221 510.892 378.813 510.402C378.405 509.901 377.804 509.65 377.01 509.65C376.415 509.65 375.855 509.778 375.33 510.035C374.817 510.28 374.315 510.618 373.825 511.05V524H368.4V497.802H373.825V507.445ZM397.724 516.615C396.639 516.662 395.746 516.755 395.046 516.895C394.346 517.035 393.792 517.21 393.384 517.42C392.976 517.63 392.69 517.869 392.526 518.137C392.375 518.406 392.299 518.697 392.299 519.012C392.299 519.631 392.468 520.068 392.806 520.325C393.145 520.57 393.641 520.692 394.294 520.692C394.994 520.692 395.606 520.57 396.131 520.325C396.656 520.08 397.187 519.683 397.724 519.135V516.615ZM387.959 508.372C389.056 507.404 390.269 506.687 391.599 506.22C392.941 505.742 394.376 505.502 395.904 505.502C397.001 505.502 397.986 505.683 398.861 506.045C399.748 506.395 400.495 506.891 401.101 507.532C401.72 508.162 402.192 508.915 402.519 509.79C402.846 510.665 403.009 511.622 403.009 512.66V524H400.524C400.011 524 399.62 523.93 399.351 523.79C399.095 523.65 398.879 523.358 398.704 522.915L398.319 521.917C397.864 522.302 397.426 522.641 397.006 522.932C396.586 523.224 396.149 523.475 395.694 523.685C395.251 523.883 394.772 524.029 394.259 524.123C393.757 524.228 393.197 524.28 392.579 524.28C391.751 524.28 390.998 524.175 390.321 523.965C389.645 523.743 389.067 523.422 388.589 523.002C388.122 522.582 387.761 522.063 387.504 521.445C387.247 520.815 387.119 520.092 387.119 519.275C387.119 518.622 387.282 517.962 387.609 517.297C387.936 516.621 388.501 516.008 389.306 515.46C390.111 514.9 391.196 514.433 392.561 514.06C393.926 513.687 395.647 513.477 397.724 513.43V512.66C397.724 511.598 397.502 510.834 397.059 510.367C396.627 509.889 396.009 509.65 395.204 509.65C394.562 509.65 394.037 509.72 393.629 509.86C393.221 510 392.853 510.157 392.526 510.332C392.211 510.507 391.902 510.665 391.599 510.805C391.296 510.945 390.934 511.015 390.514 511.015C390.141 511.015 389.826 510.922 389.569 510.735C389.312 510.548 389.102 510.327 388.939 510.07L387.959 508.372ZM411.482 507.812C411.832 507.486 412.193 507.182 412.567 506.902C412.94 506.622 413.337 506.389 413.757 506.202C414.188 506.004 414.649 505.852 415.139 505.747C415.641 505.631 416.183 505.572 416.767 505.572C417.758 505.572 418.633 505.747 419.392 506.097C420.162 506.436 420.809 506.914 421.334 507.532C421.859 508.139 422.256 508.868 422.524 509.72C422.792 510.56 422.927 511.476 422.927 512.467V524H417.502V512.467C417.502 511.581 417.297 510.892 416.889 510.402C416.481 509.901 415.88 509.65 415.087 509.65C414.492 509.65 413.932 509.778 413.407 510.035C412.893 510.28 412.392 510.618 411.902 511.05V524H406.477V505.852H409.837C410.513 505.852 410.957 506.156 411.167 506.762L411.482 507.812ZM431.443 507.812C431.793 507.486 432.154 507.182 432.528 506.902C432.901 506.622 433.298 506.389 433.718 506.202C434.149 506.004 434.61 505.852 435.1 505.747C435.602 505.631 436.144 505.572 436.728 505.572C437.719 505.572 438.594 505.747 439.353 506.097C440.123 506.436 440.77 506.914 441.295 507.532C441.82 508.139 442.217 508.868 442.485 509.72C442.753 510.56 442.888 511.476 442.888 512.467V524H437.463V512.467C437.463 511.581 437.258 510.892 436.85 510.402C436.442 509.901 435.841 509.65 435.048 509.65C434.453 509.65 433.893 509.778 433.368 510.035C432.854 510.28 432.353 510.618 431.863 511.05V524H426.438V505.852H429.798C430.474 505.852 430.918 506.156 431.128 506.762L431.443 507.812ZM457.686 512.747C457.686 512.316 457.628 511.896 457.511 511.487C457.406 511.079 457.225 510.717 456.969 510.402C456.724 510.076 456.397 509.813 455.989 509.615C455.58 509.417 455.084 509.317 454.501 509.317C453.474 509.317 452.669 509.615 452.086 510.21C451.503 510.793 451.118 511.639 450.931 512.747H457.686ZM450.861 515.897C451.036 517.414 451.497 518.517 452.244 519.205C452.99 519.882 453.953 520.22 455.131 520.22C455.761 520.22 456.304 520.144 456.759 519.992C457.214 519.841 457.616 519.672 457.966 519.485C458.328 519.298 458.654 519.129 458.946 518.977C459.249 518.826 459.564 518.75 459.891 518.75C460.323 518.75 460.649 518.907 460.871 519.222L462.446 521.165C461.886 521.807 461.279 522.332 460.626 522.74C459.984 523.137 459.319 523.452 458.631 523.685C457.954 523.907 457.272 524.058 456.584 524.14C455.907 524.233 455.259 524.28 454.641 524.28C453.369 524.28 452.174 524.076 451.054 523.667C449.945 523.247 448.971 522.629 448.131 521.812C447.303 520.996 446.644 519.981 446.154 518.767C445.675 517.554 445.436 516.142 445.436 514.532C445.436 513.319 445.64 512.17 446.049 511.085C446.469 510 447.064 509.049 447.834 508.232C448.615 507.416 449.554 506.768 450.651 506.29C451.759 505.812 453.008 505.572 454.396 505.572C455.598 505.572 456.694 505.759 457.686 506.132C458.689 506.506 459.547 507.048 460.259 507.76C460.982 508.472 461.542 509.347 461.939 510.385C462.347 511.412 462.551 512.578 462.551 513.885C462.551 514.293 462.534 514.626 462.499 514.882C462.464 515.139 462.399 515.343 462.306 515.495C462.213 515.647 462.084 515.752 461.921 515.81C461.769 515.868 461.571 515.897 461.326 515.897H450.861ZM470.691 497.802V524H465.266V497.802H470.691Z" fill="white"/>
</g>
<defs>
<clipPath id="clip0">
<rect width="584" height="713" fill="white"/>
</clipPath>
</defs>
</svg>
